<?xml version="1.0" encoding="UTF-8" standalone="no"?>
<svg xmlns="http://www.w3.org/2000/svg" width="603.6724" height="125" xmlns:dc="http://purl.org/dc/elements/1.1/" xmlns:cc="http://creativecommons.org/ns#" xmlns:rdf="http://www.w3.org/1999/02/22-rdf-syntax-ns#">
  <defs>
    <clipPath id="a">
      <path d="M56.467 543.071h205.101v47.953H56.467v-47.953z"/>
    </clipPath>
    <clipPath id="b">
      <path d="M64.016 585.91v-84.814h185.879v84.814"/>
    </clipPath>
  </defs>
  <metadata>
    <rdf:RDF>
      <cc:Work>
        <dc:format>
          image/svg+xml
        </dc:format>
        <dc:type rdf:resource="http://purl.org/dc/dcmitype/StillImage"/>
        <dc:title/>
      </cc:Work>
    </rdf:RDF>
  </metadata>
  <g clip-path="url(#a)" transform="matrix(3.24766 0 0 -3.24766 -207.902 1902.837)">
    <g clip-path="url(#b)">
      <path fill="#231f20" d="M71.647 585.2992h17.667l.809.01h1.794c.859 0 2.275.042 4.271.125l.747.031c-.109-1.549-.131-2.158-.135-2.979l-.01-2.375-.01-2.25v-12.566c0-7.914-1.791-10.601-10.327-14.816-.378-.187-4.729-2.358-5.184-2.602l-.425-.229-.436-.228-.435.228-.436.229c-1.794.939-3.615 1.766-5.029 2.46-7.821 3.836-10.326 6.56-10.326 14.958v12.566l-.021 2.25-.01 2.375c-.007 1.434-.022 1.899-.135 2.979l.747-.031c1.965-.082 3.429-.125 4.282-.125h1.783l.819-.01"/>
      <path fill="#fff" d="M80.407 548.1884l3.363 1.65.084.032-.021.073v15.469l-.031.094.105-.021h12.169l.105-.031-.032.136v6.558l.032.105-.105-.031H83.907l-.105-.022.031.105v12.306l.021.105-.094-.031h-6.663l-.105.031.032-.105v-12.306l.021-.105-.095.022H64.875l-.105.031.032-.105v-6.621l-.032-.073.105.031H76.95l.095.021-.021-.126v-15.405l-.032-.126.084-.021 3.331-1.64"/>
      <path fill="#ef2f51" d="M64.928 584.685l-.158.031.032-.114v-12.317l-.032-.095.148.032H76.94l.105-.032-.021.105v12.338l.021.083-.105-.031H64.928m19.031 0l-.147.031.021-.114v-12.317l-.021-.095.136.032h12.117l.116-.032-.032.106v12.337l.032.083-.116-.031H83.959m-6.967-19.2002H64.844l-.074.031.032-.084v-.734c0-6.763 2.257-10.051 9.205-13.409l2.197-1.062.765-.358.063-.073-.01.105.002 15.521.021.094-.053-.031m6.904 0l-.084.031.021-.073v-15.499l-.021-.116.084.094.694.316c9.434 4.44 11.559 7.086 11.559 14.397v.778l.032.105-.105-.032-12.18-.001"/>
      <path fill="#231f20" d="M66.7774 571.6124c.033-.037.057-.065.074-.084.04-.046.067-.077.084-.094.013-.015.044-.046.094-.095l.084-.084c-.029-.023-.047-.037-.052-.042l-.106-.095-.083-.094-.032-.032v-.098c0-.851.221-1.431.694-1.814l.084-.069-.084-.057-.095.01-.2.021-.178.032-.105.021-.105-.757h-.147l-.106.757-.105-.021c-.09-.02-.146-.029-.168-.032l-.21-.021-.095-.01c-.044.001-.08.015-.08.032 0 .019.018.044.049.067l.157.121c.13.1.216.224.368.536.069.14.105.259.106.347.001.221.034.399.073.399l.021.389.011.147-.042.032-.085.094-.105.095-.042.042c.038.037.066.065.084.084.146.144.16.16.242.273m3.9826 0c.082-.113.097-.129.242-.273l.084-.084-.042-.042-.105-.095-.084-.094-.052-.032.021-.147.02-.389c.03-.557.34-1.201.662-1.376.056-.031.09-.057.09-.069 0-.029-.021-.052-.048-.052l-.136.005-.2.021-.179.032-.104.021-.105-.757h-.137l-.105.757-.105-.021-.179-.032-.199-.021-.096-.01-.013-.001c-.043 0-.072.014-.072.035 0 .02.016.044.044.065l.157.121c.137.105.175.159.368.536.076.147.115.266.116.347 0 .221.029.399.063.399l.021.389.01.147c-.014.014-.024.025-.031.032-.055.055-.086.086-.095.094l-.105.095-.042.042.084.084c.05.049.082.08.095.095.016.017.044.048.084.094.016.019.04.047.073.084m-1.9858-2.333l.074-.084.073-.094c.018-.023.049-.055.095-.095l.094-.084-.052-.042-.095-.095-.095-.084-.031-.042v-.098c0-.874.208-1.42.694-1.814l.084-.069-.084-.058-.095.011-.2.021-.178.032-.105.021-.105-.757h-.147l-.106.757-.105-.021-.178-.032-.2-.021-.095-.011h-.011c-.041 0-.073.016-.073.035 0 .015.02.04.053.065l.157.121c.336.257.568.962.568 1.72v.098l-.031.042-.095.084-.095.095-.052.042c.16.138.238.222.336.357m3.9934 0c.098-.135.176-.219.336-.357l-.052-.042-.095-.095-.094-.084-.032-.042-.001-.098c0-.571.167-1.258.358-1.479l.21-.241c.018-.02.056-.051.116-.094l.094-.069-.083-.058-.095.011-.2.021-.178.032-.106.021-.105-.757h-.147l-.105.757-.105-.021-.179-.032-.199-.021-.095-.011h-.011c-.04 0-.073.016-.073.036 0 .017.017.04.047.064l.153.121c.33.262.578.966.578 1.72v.098l-.032.042-.094.084-.095.095-.052.042c.042.037.073.065.094.084.045.04.077.071.095.095l.073.094.074.084m1.9964 2.333c.082-.113.096-.129.241-.273.019-.019.048-.047.085-.084l-.042-.042-.105-.095-.084-.094-.042-.032.01-.147.021-.389c.029-.542.349-1.208.662-1.376.055-.03.089-.057.089-.069 0-.029-.019-.052-.041-.052l-.132.005-.21.021c-.045.005-.104.015-.179.032l-.094.021-.105-.757h-.148l-.104.757-.111-.027-.173-.026-.2-.021-.095-.01-.013-.001c-.04 0-.072.014-.072.032 0 .019.018.044.048.068l.153.121c.14.111.184.176.368.536.076.149.115.267.115.347.001.221.029.399.063.399l.021.389.011.147-.032.032-.094.094c-.047.049-.078.08-.095.095-.008.008-.026.022-.052.042l.084.084c.05.049.081.08.094.095.017.017.045.048.084.094.017.019.041.047.074.084m11.339.021l.074-.095.073-.084c.049-.056.081-.091.095-.105.02-.02.051-.047.094-.084l-.052-.042-.095-.094-.095-.084-.031-.043v-.091c0-.846.283-1.586.694-1.81.063-.036.09-.063.09-.092l-.006-.014-.084-.021h-.095c-.123 0-.342.038-.483.084l-.105-.756h-.148l-.105.756c-.148-.048-.363-.084-.483-.084h-.095c-.061 0-.088.011-.088.037 0 .03.027.058.088.09.404.21.694.966.694 1.81v.091l-.032.043-.094.084-.095.094-.053.042c.044.037.076.064.095.084.014.014.045.049.095.105l.073.084.074.095m4.0038 0l.074-.095.084-.084.094-.105.084-.084-.052-.042-.095-.094-.095-.084-.031-.043-.001-.091c0-.836.289-1.589.695-1.81.063-.035.09-.063.09-.092l-.006-.014-.084-.021h-.095c-.123 0-.342.038-.483.084l-.105-.756h-.148l-.105.756c-.17-.054-.356-.084-.524-.084-.115 0-.139.007-.139.042 0 .031.026.054.096.085.084.037.237.193.326.336.166.266.262.495.262.63.001.227.034.41.074.41l.021.389.01.136c-.018.019-.032.033-.042.043-.133.133-.143.143-.242.22l.095.084.095.105.084.084.063.095m-1.9968-2.333c.033-.037.057-.065.074-.084.039-.046.068-.077.084-.095.013-.013.039-.05.089-.1.019-.018.052-.04.089-.078l-.052-.042-.095-.105-.095-.084-.031-.043.011-.136.02-.389c.032-.574.33-1.195.663-1.376.063-.035.09-.063.09-.093l-.006-.013-.084-.02h-.095c-.123 0-.342.037-.483.084l-.105-.757h-.148l-.105.757c-.141-.052-.35-.086-.527-.086-.107 0-.133.01-.133.049 0 .028.025.05.093.079.083.035.242.199.326.336.172.28.273.514.273.63 0 .226.029.41.063.41l.021.389.011.136-.042.043-.085.084-.105.105-.041.042.083.083c.146.145.16.161.242.274m4.0353 0c.033-.037.057-.065.074-.084.04-.046.068-.077.084-.095.013-.013.044-.045.095-.095.018-.018.046-.045.083-.083-.018-.019-.032-.033-.041-.042-.06-.061-.094-.095-.106-.105-.056-.05-.088-.078-.095-.084-.005-.006-.016-.02-.031-.043l.011-.136.02-.389c.032-.574.33-1.195.663-1.376.063-.035.09-.063.09-.093l-.006-.013-.084-.02h-.095c-.123 0-.342.037-.483.084l-.105-.757h-.137l-.116.757c-.141-.052-.35-.086-.526-.086-.108 0-.134.01-.134.049 0 .028.025.05.093.079.083.035.242.199.326.336.171.28.273.514.273.63 0 .226.029.41.063.41l.021.389.011.136-.042.043-.085.084-.105.105-.041.042.083.083c.146.145.161.161.242.274m1.9967 2.333l.074-.095.084-.084.094-.105.084-.084-.052-.042-.095-.094-.095-.084-.031-.043v-.091c0-.836.288-1.589.694-1.81.063-.035.09-.063.09-.092l-.006-.014-.084-.021h-.095c-.123 0-.342.038-.483.084l-.105-.756h-.148l-.105.756c-.17-.054-.356-.084-.524-.084-.115 0-.139.007-.139.042 0 .031.026.054.096.085.084.037.237.193.326.336.166.266.262.495.262.63.001.227.034.41.074.41l.021.389.01.136c-.018.019-.032.033-.042.043-.046.047-.074.075-.084.084l-.105.094-.042.042.084.084.095.105.084.084.063.095m-15.5528-10.856c.082-.112.096-.129.241-.273.019-.019.048-.046.085-.084l-.042-.042-.106-.094-.083-.095-.043-.042.011-.137.021-.389c.018-.343.162-.785.336-1.039.116-.169.243-.301.326-.337.07-.031.096-.053.096-.086 0-.034-.026-.041-.149-.041-.164 0-.378.035-.515.085l-.104-.757h-.148l-.104.757c-.142-.046-.361-.084-.484-.084h-.094c-.062 0-.089.011-.089.036 0 .031.027.058.089.09.1.053.244.2.325.337.186.308.273.512.273.629.001.227.029.41.063.41l.021.389.011.137-.032.042-.094.095-.095.094-.052.042c.037.038.065.065.084.084.05.049.081.081.094.095.017.017.045.049.084.095.017.018.041.047.074.083m3.7516 0c.082-.112.096-.129.242-.273.018-.019.046-.046.084-.084l-.042-.042-.105-.094-.085-.095-.042-.042.011-.137.021-.389c.019-.343.161-.785.337-1.039.115-.169.242-.301.325-.337.07-.031.096-.053.096-.086 0-.034-.026-.041-.149-.041-.164 0-.378.035-.514.085l-.105-.757h-.148l-.105.757c-.141-.046-.36-.084-.483-.084h-.095c-.061 0-.088.011-.088.036 0 .031.027.058.088.09.101.053.245.2.326.337.185.308.273.512.273.629.001.227.029.41.064.41l.02.389.011.137-.031.042-.095.095-.095.094-.052.042c.037.038.065.065.084.084.05.049.082.081.094.095.017.017.044.049.084.095.017.018.041.047.074.083m-1.9125-3.404l.047-.111.1-.068.095-.105.084-.084-.042-.042-.105-.095c-.01-.008-.038-.036-.085-.084-.009-.009-.023-.023-.041-.042l.01-.136.021-.389c.031-.57.35-1.234.662-1.376.072-.034.095-.054.095-.083l-.011-.023-.073-.031-.095.01-.21.021c-.045.004-.104.015-.179.031l-.094.021-.116-.756h-.137l-.105.756-.105-.021-.178-.031-.2-.021-.095-.01-.01-.002c-.047 0-.077.02-.077.049 0 .031.025.056.087.09.104.054.245.199.326.335.186.311.273.513.273.631 0 .226.029.41.063.41l.021.389.011.136-.032.042-.094.084-.095.095-.053.042.085.084.094.105.084.084.074.095m-1.86-3.4684l.073-.094.085-.085.094-.105.069-.099-.037-.027-.095-.094-.095-.084-.031-.042.01-.137.021-.389c.032-.574.331-1.195.663-1.376.063-.035.09-.062.09-.092l-.006-.013-.084-.021h-.095c-.084 0-.235.023-.483.073l-.106-.746h-.147l-.105.746c-.222-.051-.388-.075-.527-.075-.108 0-.133.01-.133.049 0 .028.025.05.093.079.083.035.242.199.326.335.171.282.273.515.273.631 0 .227.029.41.063.41l.021.389.01.137c-.019.018-.032.032-.041.042-.047.046-.075.075-.085.084l-.105.094-.042.043.084.083.095.105.084.085.063.094m3.7725 0l.063-.094.084-.085.079-.12.1-.068-.042-.043-.105-.094c-.01-.009-.038-.038-.085-.084-.009-.01-.022-.024-.042-.042l.011-.137.021-.389c.019-.343.161-.785.337-1.041.115-.168.242-.299.325-.335.07-.031.096-.055.096-.086 0-.034-.026-.041-.14-.041-.136 0-.302.024-.523.074l-.105-.746h-.148l-.105.746c-.248-.05-.399-.073-.483-.073h-.095c-.061 0-.088.01-.088.035 0 .031.027.059.088.091.101.052.245.199.326.335.185.31.273.513.273.631.001.227.029.41.064.41l.02.389.011.137-.031.042-.095.084-.095.094-.052.043.084.083.094.105.084.085.074.094m-1.9125 10.2987l.063-.094.084-.085.095-.105.084-.084-.042-.042-.105-.094c-.01-.009-.038-.037-.085-.084-.009-.01-.023-.024-.041-.043l.01-.136.021-.389c.031-.568.357-1.247.662-1.376.069-.03.093-.051.093-.081 0-.037-.027-.046-.133-.046-.139 0-.305.023-.527.073l-.116-.756h-.137l-.105.756c-.248-.049-.399-.072-.483-.072h-.095c-.061 0-.088.01-.088.036 0 .03.027.058.088.09.101.052.245.2.326.335.185.31.273.513.273.631 0 .227.029.41.063.41l.021.389.011.136-.032.043-.094.084-.095.094-.053.042.085.084.094.105.084.085.074.094m-1.8916 19.178c.033-.037.057-.065.074-.083.039-.046.067-.078.084-.095.013-.014.044-.046.094-.095.019-.019.047-.046.084-.084l-.042-.042-.105-.094c-.009-.009-.04-.04-.094-.095-.007-.007-.018-.017-.032-.032l.011-.147.021-.378c.02-.366.183-.875.336-1.051l.21-.241c.011-.013.049-.045.116-.095l.089-.068-.089-.058-.095.01-.2.021-.178.032-.105.021-.116-.725-.126-.032-.105.757-.105-.021-.179-.032-.2-.021-.11-.011c-.039 0-.069.016-.069.034 0 .019.016.043.043.067.009.007.062.048.157.121.136.102.175.158.368.535.076.147.116.266.116.347.001.226.029.41.063.41l.021.378.011.147-.042.032-.084.095-.106.094-.042.042c.038.038.066.065.084.084.146.144.16.16.242.273m3.804 0c.082-.113.096-.129.242-.273.018-.019.046-.046.084-.084l-.042-.042-.105-.094-.085-.095-.042-.032.011-.147.021-.378c.031-.556.346-1.217.662-1.387.055-.03.09-.056.09-.068 0-.03-.019-.053-.043-.053l-.131.005-.21.021c-.045.005-.104.015-.179.032l-.094.021-.105-.757h-.148l-.105.757-.115.01-.168-.063-.2-.021-.095-.01-.014-.001c-.039 0-.071.014-.071.033 0 .019.018.043.049.068l.152.121c.139.11.185.176.368.535.075.149.115.268.115.347.001.226.03.41.064.41l.02.378.011.147-.031.032-.095.095c-.047.048-.079.08-.095.094-.009.008-.026.022-.052.042.037.038.065.065.084.084.05.049.082.081.094.095.017.017.044.049.084.095.017.018.041.046.074.083m-1.9337-3.2887l.074-.084.084-.095c.051-.057.082-.092.095-.104.018-.02.046-.048.084-.085l-.053-.042-.095-.095-.094-.083-.031-.043.01-.136.011-.358c.03-.574.339-1.227.672-1.408.063-.034.091-.062.091-.092l-.007-.013-.084-.021h-.095c-.123 0-.342.038-.483.084l-.105-.756h-.147l-.105.756c-.141-.051-.35-.085-.524-.085-.115 0-.139.008-.139.042 0 .032.025.055.095.085.085.038.237.194.326.336.166.267.262.496.262.631.002.227.034.41.074.41l.021.389.011.136c-.019.019-.033.033-.042.043-.046.047-.075.075-.084.083l-.105.095-.042.042.083.085.095.104c.049.055.077.086.084.095.015.018.036.046.063.084m-1.8807-3.2788l.073-.084.074-.095c.018-.022.049-.054.094-.094l.095-.084c-.03-.023-.047-.037-.052-.042l-.095-.095-.094-.095-.032-.031-.001-.098c0-.554.165-1.248.348-1.447l.231-.273c.002-.002.04-.033.116-.095l.084-.068-.084-.058-.095.011-.2.021-.178.031-.106.021-.105-.756h-.147l-.105.756-.105-.021-.178-.031-.2-.021-.095-.011h-.014c-.039 0-.071.014-.071.033 0 .018.018.043.048.067l.153.121c.35.278.578.956.578 1.72v.098l-.032.031-.094.095c-.047.049-.078.08-.095.095-.009.007-.026.022-.053.042.042.037.074.065.095.084.045.039.077.071.095.094l.073.095.074.084m3.7933 0c.033-.037.057-.065.074-.084.04-.046.068-.077.084-.095.013-.013.044-.045.094-.094.019-.019.047-.047.085-.084-.03-.023-.048-.037-.053-.042l-.095-.095-.094-.095-.031-.031.01-.147.021-.389c.031-.58.256-1.046.662-1.377l.084-.068-.084-.058-.095.011-.199.021-.179.031-.105.021-.105-.756h-.147l-.116.788c-.191-.043-.198-.078-.263-.084l-.21-.021-.094-.011h-.011c-.038 0-.064.014-.064.034 0 .021.016.045.043.066l.158.121c.136.105.176.162.368.536.075.147.115.266.115.347.001.22.029.399.063.399l.021.389.011.147-.042.031-.084.095-.105.095-.042.042.084.084c.145.144.16.16.241.273m-7.8706 1.692l.042-.158c.038-.142.066-.254.084-.336.133-.6.244-.758.536-.758.166 0 .305.093.346.232l.064.211c.014.048.051.077.101.077.113 0 .167-.119.172-.382.002-.076.026-.248.074-.515.028-.159.042-.312.042-.459 0-.134-.011-.191-.063-.329.036-.206.063-.484.063-.644 0-.26-.048-.501-.127-.628.045-.174.054-.244.054-.395 0-.112-.011-.234-.032-.351-.046-.252-.056-.316-.056-.363 0-.048.008-.096.024-.141.021-.06.032-.103.032-.126 0-.03-.014-.053-.032-.053l-.21.084-.231.126c-.075.041-.127.081-.242.189-.204-.184-.265-.211-.799-.357-.106-.029-.185-.061-.231-.095-.066-.047-.115-.073-.14-.073-.09 0-.134.146-.134.445 0 .223.023.43.064.585-.157.061-.291.094-.376.094-.015 0-.069-.007-.16-.021l-.039-.003c-.031 0-.057.046-.057.101 0 .041.029.142.064.228l.106.252c.038.092.124.196.252.305.104.089.198.143.273.158l.378.073c.225.044.359.163.359.319 0 .151-.101.254-.327.333l-.452.158c-.116.04-.254.107-.41.199-.25.149-.293.168-.353.168-.09 0-.142-.067-.142-.186 0-.187.121-.318.295-.318.035 0 .071.007.106.021.05.02.087.032.107.032.048 0 .074-.028.074-.08l-.003-.046-.021-.179c-.018-.153-.116-.338-.336-.631l-.095-.126c-.085-.338-.295-.646-.567-.83-.068-.046-.107-.075-.116-.084-.009-.01-.037-.06-.084-.147-.021-.04-.092-.125-.21-.252-.089-.097-.177-.178-.263-.242-.117-.089-.189-.153-.21-.19l-.105-.178c-.019-.033-.051-.053-.084-.053-.093 0-.179.097-.231.263-.039.123-.073.158-.153.158-.041 0-.102-.011-.183-.032l-.147-.021h-.379c-.189 0-.456-.048-.578-.105-.048-.022-.085-.034-.108-.034-.027 0-.042.014-.071.066-.018.034-.023.051-.023.084 0 .192.137.553.318.84.114.182.15.224.283.337-.042.178-.157.316-.294.357l-.178.052c-.025.007-.043.028-.043.052 0 .054.086.129.242.211.206.108.412.168.577.168.175 0 .344-.069.537-.221.285-.222.362-.263.501-.263.225 0 .438.205.438.421 0 .144-.077.298-.277.557-.293.379-.381.576-.381.854 0 .173.054.393.118.491l.106.158c.022.035.034.069.034.101 0 .07-.08.12-.19.12-.166 0-.484-.118-.738-.273-.126-.078-.211-.168-.211-.225 0-.032.016-.063.043-.08l.116-.074c.013-.009.022-.025.022-.043 0-.016-.017-.049-.043-.083l-.21-.273c-.109-.141-.277-.317-.442-.462-.055-.049-.09-.084-.105-.106l-.084-.157c-.074-.141-.274-.345-.462-.473-.078-.053-.127-.092-.148-.116-.015-.018-.043-.067-.084-.147-.026-.052-.072-.126-.136-.221-.103-.152-.188-.261-.252-.325l-.295-.294c-.091-.091-.17-.267-.294-.652-.075-.232-.141-.368-.18-.368-.018 0-.047.023-.083.063-.208.238-.387.379-.481.379-.022 0-.062-.018-.117-.053-.077-.049-.173-.084-.285-.105l-.388-.073c-.293-.056-.409-.12-.578-.316-.04-.047-.073-.074-.091-.074-.033 0-.057.053-.057.123l.012.098.052.284c.056.302.126.529.21.683l.178.326c.035.063.053.121.053.171 0 .242-.25.463-.556.491-.078.007-.108.026-.108.068 0 .054.086.159.202.247.211.16.486.274.662.274.107 0 .271-.044.473-.127l.231-.094c.086-.036.165-.054.234-.054.245 0 .482.223.775.726.131.227.189.391.189.539 0 .266-.126.428-.334.428-.157 0-.33-.076-.454-.2-.106-.106-.162-.217-.162-.325l.004-.117.001-.026c0-.098-.032-.152-.091-.152-.099 0-.244.141-.656.641-.308.373-.376.532-.389.904-.357.455-.445.648-.445.971l.015.216c-.247.297-.317.459-.317.732 0 .099.016.157.075.277-.125.184-.166.267-.2.41l-.053.221c-.035.15-.092.28-.168.389-.095.136-.105.154-.105.2 0 .123.084.171.452.262-.014.102-.022.18-.022.233 0 .061.008.12.033.251l.073.389c.03.156.045.269.045.337 0 .072-.012.124-.076.335-.037.12-.069.201-.095.241-.034.054-.063.12-.063.144 0 .038.025.059.072.059.104 0 .38-.167.664-.402.603-.5.727-.699.809-1.303.006-.047.017-.117.032-.211.289-.213.441-.469.441-.744 0-.218-.079-.471-.211-.674l-.21-.326c-.061-.096-.094-.216-.094-.347 0-.199.057-.38.199-.63.161-.284.298-.4.469-.4.276 0 .52.483.52 1.031v.073l-.002.19c0 .106.006.212.022.346.02.163.03.265.032.304l.011.253.003.166c0 .059-.032.118-.109.201l-.231.253c-.334.364-.518.707-.518.964 0 .319.231.558.537.558.061 0 .116-.01.223-.04v.071c0 .463.095.806.222.806l.051-.016.189-.168.231-.147.063-.063c0 .13.007.144.137.294.031.037.08.103.147.2.054.077.088.13.105.157.016.027.034.059.053.095.028.054.056.079.087.079.029 0 .053-.039.091-.153.025-.072.042-.091.221-.252.063-.057.106-.103.126-.137.018-.028.046-.099.084-.21.007-.018.017-.046.032-.084.078.099.116.134.21.19l.158.094c.058.035.099.055.117.055.013 0 .032-.026.051-.065.017-.037.045-.09.084-.158.112-.195.149-.289.149-.38l-.002-.104v-.125c.345-.109.474-.288.474-.658 0-.268-.141-.576-.411-.898-.18-.215-.202-.257-.202-.408 0-.778.542-1.227 1.495-1.241l.703-.011c.453-.007.723-.052 1.146-.189.499-.163.645-.2.789-.2.049 0 .097.015.136.042.039.027.063.062.063.094 0 .147-.258.265-1.104.505-1.732.491-2.469 1.188-2.469 2.337 0 .887.738 1.574 1.692 1.574.307 0 .78-.081 1.051-.18l.43-.158c.079-.029.155-.044.226-.044.147 0 .222.122.226.37.003.133.034.179.12.179.121 0 .309-.152.479-.39.174-.239.285-.509.285-.69 0-.238-.112-.405-.369-.549-.235-.359-.526-.526-.916-.526-.304 0-.735.172-1.448.578-.249.142-.376.189-.507.189-.185 0-.307-.108-.307-.273 0-.151.118-.25.425-.357.454-.159.566-.221.746-.41.535-.093.769-.186 1.104-.442.922-.292 1.494-.921 1.494-1.643 0-.701-.474-1.205-1.134-1.205-.157 0-.254.012-.497.064m19.6088 0l.042-.158c.038-.142.066-.254.085-.336.132-.6.244-.758.535-.758.167 0 .305.093.347.232l.063.211c.015.048.051.076.1.076.115 0 .176-.126.184-.381.003-.097.024-.27.063-.515.028-.177.042-.34.042-.487 0-.106-.013-.169-.063-.301l.021-.126c.035-.208.044-.288.044-.385 0-.452-.022-.585-.128-.761.043-.172.055-.253.055-.376 0-.079-.01-.193-.034-.37l-.042-.315.01-.189c.028-.069.042-.112.042-.126 0-.03-.018-.053-.042-.053l-.21.084-.231.126c-.075.041-.127.081-.242.189-.202-.18-.232-.196-.473-.262-.348-.096-.477-.14-.546-.19-.068-.047-.118-.073-.145-.073-.082 0-.139.158-.139.39 0 .336.02.51.074.64-.205.069-.308.094-.383.094-.028 0-.044-.002-.153-.021l-.047-.004c-.031 0-.049.038-.049.101 0 .102.073.308.17.481.131.235.348.43.514.463l.379.073c.225.044.358.163.358.319 0 .151-.099.251-.327.333l-.441.158c-.149.053-.289.119-.42.199-.112.068-.189.113-.232.137-.038.02-.078.031-.114.031-.094 0-.15-.067-.15-.179 0-.179.138-.326.305-.326.037 0 .073.008.106.022.048.02.081.032.097.032.048 0 .083-.047.083-.113 0-.186-.118-.509-.243-.665l-.126-.158-.094-.126c-.036-.27-.301-.658-.568-.83-.064-.041-.103-.069-.116-.084-.008-.01-.036-.06-.084-.147-.021-.04-.092-.125-.21-.252-.089-.097-.176-.178-.262-.242-.118-.089-.189-.153-.211-.19l-.105-.178c-.021-.037-.048-.055-.082-.055-.094 0-.18.098-.233.265-.039.123-.072.158-.152.158-.041 0-.103-.011-.184-.032l-.147-.021h-.368c-.199 0-.466-.047-.589-.105-.047-.022-.084-.034-.108-.034-.054 0-.082.055-.082.161 0 .333.256.839.59 1.166-.05.193-.151.322-.284.357-.119.032-.183.05-.189.052-.02.01-.032.03-.032.051 0 .067.075.133.242.212.298.141.386.168.552.168.191 0 .352-.065.551-.221.285-.222.364-.263.501-.263.224 0 .438.205.438.42 0 .146-.08.307-.277.558-.28.358-.379.591-.379.894 0 .203.041.314.222.609.028.047.044.085.044.112 0 .057-.096.109-.202.109-.112 0-.252-.04-.441-.126-.317-.146-.505-.281-.505-.364 0-.032.02-.065.053-.088l.105-.074c.014-.01.022-.026.022-.044s-.019-.054-.043-.082c-.021-.024-.091-.115-.21-.273-.147-.196-.287-.342-.441-.462-.056-.044-.091-.079-.106-.106l-.084-.157c-.07-.132-.277-.349-.451-.473-.08-.057-.129-.095-.148-.116-.021-.023-.053-.073-.094-.147-.108-.193-.277-.43-.389-.546l-.284-.294c-.081-.085-.195-.328-.305-.652-.086-.255-.141-.368-.18-.368-.018 0-.047.023-.082.063-.204.233-.387.379-.477.379-.023 0-.065-.019-.122-.053-.081-.049-.177-.084-.284-.105l-.378-.073c-.316-.062-.443-.13-.589-.316-.036-.047-.067-.074-.083-.074-.038 0-.065.054-.065.129l.011.092c.003.01.021.105.053.284.054.298.131.547.21.683l.189.326c.035.059.053.118.053.17 0 .242-.226.438-.568.492-.07.011-.105.037-.105.077 0 .048.082.14.211.238.223.169.469.273.643.273.116 0 .273-.041.481-.126l.231-.094c.086-.036.166-.054.234-.054.245 0 .482.223.775.726.133.228.189.391.189.541 0 .266-.123.426-.33.426-.163 0-.319-.069-.448-.2-.114-.116-.174-.231-.174-.334l.006-.108.004-.055c0-.085-.028-.123-.091-.123-.08 0-.172.077-.354.294-.075.09-.173.206-.294.347-.32.374-.386.523-.399.904-.357.455-.445.707-.445.971l.014.216c-.256.307-.305.426-.305.729 0 .135.008.171.063.28-.125.184-.166.267-.2.41l-.052.221c-.036.15-.092.279-.169.389-.094.135-.105.155-.105.194 0 .111.105.181.368.247l.084.021c-.014.102-.021.18-.021.233 0 .061.008.12.032.251l.073.389c.029.152.044.267.044.344 0 .09-.014.163-.064.328-.033.107-.069.188-.106.241-.04.059-.063.107-.063.139 0 .036.036.064.083.064.026 0 .07-.014.106-.035.355-.193.743-.5 1.02-.808.238-.265.313-.485.368-1.073.322-.24.442-.457.442-.797 0-.203-.066-.398-.211-.621-.128-.197-.198-.306-.21-.326-.063-.105-.095-.228-.095-.356 0-.19.057-.368.2-.621.157-.279.298-.4.465-.4.275 0 .525.476.525 1.001l-.002.103v.284l.031.252.021.304.021.253.008.14c0 .104-.021.134-.344.48-.357.382-.526.705-.526 1.003 0 .283.243.519.535.519.06 0 .116-.01.222-.04v.125l.011.222.062.272c.051.218.074.258.149.258l.051-.016.189-.168.232-.147.063-.063c.014.131.026.157.136.294.055.068.104.135.147.2l.106.157.063.095c.041.063.06.08.087.08.028 0 .048-.037.08-.154.014-.048.047-.095.095-.136l.137-.116c.111-.094.185-.232.231-.431.083.104.123.141.21.19l.168.094c.062.035.1.053.111.053.011 0 .03-.024.047-.063.024-.055.053-.108.084-.158.136-.218.148-.248.148-.396l-.001-.088v-.125c.341-.094.474-.278.474-.655 0-.283-.13-.575-.4-.901-.18-.216-.211-.283-.211-.445 0-.742.559-1.19 1.503-1.204l.694-.011c.453-.007.729-.053 1.145-.189.487-.16.645-.2.793-.2.107 0 .195.059.195.131 0 .152-.254.27-1.103.51-1.731.489-2.47 1.189-2.47 2.336 0 .889.741 1.574 1.7 1.574.302 0 .774-.081 1.043-.179l.431-.158c.078-.029.155-.044.225-.044.149 0 .205.092.227.37.009.124.049.179.128.179.11 0 .325-.174.481-.39.16-.221.273-.513.273-.705 0-.223-.117-.393-.367-.534-.236-.359-.526-.526-.917-.526-.298 0-.806.203-1.448.578-.252.147-.363.189-.503.189-.189 0-.311-.107-.311-.273 0-.152.113-.246.425-.357.497-.177.604-.236.746-.41.536-.093.769-.186 1.104-.442.959-.307 1.493-.9 1.493-1.658 0-.691-.469-1.19-1.12-1.19-.173 0-.263.012-.51.064m-19.409-19.8402c.092-.232.123-.346.136-.495l.021-.441c.017-.442.164-.662.441-.662.102 0 .185.027.232.074l.116.115.046.014c.073 0 .113-.048.113-.137l-.012-.171c-.009-.077.005-.239.042-.483.021-.143.032-.285.032-.424 0-.224-.016-.31-.095-.511.073-.207.115-.44.115-.635 0-.229-.038-.383-.126-.511.042-.181.053-.254.053-.357 0-.104-.014-.237-.042-.4-.038-.219-.052-.389-.042-.504l.001-.027c0-.066-.021-.099-.061-.099-.04 0-.088.031-.13.084-.064.082-.105.112-.154.112-.073 0-.095-.038-.203-.354-.033-.097-.118-.228-.252-.389-.104-.125-.169-.228-.189-.304-.034-.127-.054-.2-.063-.221-.012-.029-.036-.049-.063-.052l-.014-.002c-.173 0-.371.372-.575 1.073-.057.198-.13.286-.237.286-.076 0-.154-.05-.183-.118l-.063-.147c-.011-.025-.033-.042-.055-.042-.084 0-.212.153-.292.347-.065.16-.102.335-.102.483 0 .329.242.576.974.988.319.18.442.407.442.82 0 .326-.098.512-.379.726-.221.167-.35.231-.468.231-.1 0-.177-.066-.177-.151 0-.098.056-.159.193-.206.163-.058.233-.115.233-.188 0-.066-.068-.21-.18-.38-.119-.182-.171-.235-.336-.347-.049-.29-.186-.475-.505-.683-.063-.181-.099-.246-.21-.389l-.221-.284c-.069-.088-.146-.249-.157-.326-.023-.16-.038-.189-.1-.189-.083 0-.254.148-.426.368-.101.131-.125.191-.136.347-.11-.086-.144-.098-.357-.126-.128-.018-.224-.042-.284-.074-.162-.085-.214-.108-.244-.108-.043 0-.058.023-.061.098l-.011.231c0 .318.126.688.316.935-.184.16-.368.257-.515.274-.062.006-.078.014-.078.037 0 .039.041.121.099.194.078.099.141.169.189.21.15.127.407.221.609.221.137 0 .338-.05.599-.147.094-.036.179-.053.251-.053.116 0 .181.074.181.207 0 .19-.094.49-.305.97-.144.325-.209.543-.209.694 0 .364.172.742.387.85-.101.052-.146.064-.234.064-.105 0-.188-.027-.323-.105-.156-.092-.242-.171-.242-.225 0-.02.031-.053.085-.091.082-.057.096-.078.096-.155 0-.259-.216-.607-.517-.833-.066-.368-.235-.59-.567-.745-.044-.201-.071-.259-.231-.484-.275-.386-.34-.508-.389-.725-.026-.113-.052-.16-.087-.16-.044 0-.137.07-.239.181-.088.096-.144.162-.168.2-.045.069-.068.137-.116.336-.075-.022-.096-.026-.149-.026l-.155.005-.105.003c-.231 0-.475-.053-.599-.129-.046-.028-.077-.042-.091-.042-.069 0-.124.142-.124.319 0 .379.106.692.351 1.036-.09.076-.12.104-.199.189-.035.038-.064.063-.085.074l-.115.063c-.039.021-.063.048-.063.069 0 .056.153.202.336.32.202.131.362.189.509.189.172 0 .264-.044.479-.231.149-.13.251-.19.323-.19.051 0 .106.036.15.095.034.049.053.103.053.157 0 .201-.239.54-.505.716-.198.13-.415.199-.626.199-.293 0-.545-.145-.656-.378l-.116-.242c-.027-.057-.061-.085-.1-.085-.068 0-.102.03-.341.306l-.273.315c-.084.097-.141.19-.169.273-.024.077-.042.124-.052.137-.01.013-.045.041-.105.084-.211.15-.364.445-.452.872-.006.03-.017.076-.032.137-.257.315-.411.706-.411 1.044 0 .045.003.065.023.143-.149.152-.167.187-.284.589-.084.286-.137.409-.242.546-.027.037-.042.065-.042.082 0 .056.088.103.242.128.144.024.153.025.211.025l.209-.014-.013.287c0 .169.013.28.055.48.021.1.032.173.032.22 0 .018-.007.078-.021.179-.011.079-.022.132-.032.158-.015.039-.023.07-.023.089 0 .034.023.052.064.052.029 0 .073-.015.138-.046.183-.09.335-.182.452-.273.362-.284.647-.72.647-.991l-.006-.082c-.014-.094-.021-.146-.021-.155 0-.045.026-.105.073-.17l.116-.158c.103-.14.169-.303.169-.412 0-.098-.021-.141-.19-.387-.127-.183-.179-.32-.179-.47 0-.189.075-.428.211-.664.124-.219.267-.338.404-.338.235 0 .336.207.373.768.02.292.047.555.084.799l.011.144c0 .065-.02.103-.105.203l-.315.368c-.302.35-.392.532-.392.783 0 .289.19.49.465.49l.126-.012-.001.082c0 .066.018.162.053.285.066.226.15.4.193.4.014 0 .049-.018.102-.053.016-.011.08-.036.189-.073.059-.021.101-.042.21-.105.05.181.088.264.168.368.136.174.29.315.344.315.033 0 .095-.046.171-.126l.2-.211c.033-.035.072-.103.116-.199l.042-.095c.055.033.097.057.126.074.082.049.138.08.168.094.128.06.195.092.199.095.055.035.092.054.108.054.035 0 .056-.063.134-.411.054-.239.061-.289.074-.463.335-.047.494-.239.494-.6 0-.339-.167-.675-.526-1.06-.097-.105-.121-.154-.121-.252 0-.93.323-1.223 1.487-1.345.716-.076.928-.121 1.787-.379.452-.135.711-.192.878-.192.198 0 .31.072.31.201 0 .194-.141.256-.978.433-1.947.41-2.712 1.075-2.712 2.358 0 .916.686 1.604 1.6 1.604.402 0 .763-.123 1.333-.452.528-.307.637-.358.759-.358.141 0 .197.09.197.318 0 .147.045.219.137.219.083 0 .211-.087.325-.222.175-.205.242-.311.242-.596 0-.38-.202-.629-.599-.738-.042-.047-.074-.082-.094-.105-.216-.244-.406-.326-.751-.326-.299 0-.674.123-.931.305l-.504.357c-.218.154-.377.22-.529.22-.216 0-.344-.129-.344-.344 0-.211.139-.383.368-.454l.473-.147c.168-.053.248-.086.452-.189.117.017.171.022.235.022.294 0 .611-.079.89-.222.088-.045.151-.074.188-.084l.263-.074c.597-.167 1.084-.834 1.084-1.486 0-.743-.482-1.204-1.261-1.204l-.243.011m18.2845.1574c.183-.242.441-.4.652-.4.065 0 .179.017.283.043.057.014.104.021.14.021.051 0 .072-.02.072-.067 0-.036-.025-.126-.054-.196-.033-.08-.054-.143-.063-.189l-.042-.221-.105-.189-.147-.137-.042-.042v-.142c0-.256-.076-.402-.284-.541-.017-.011-.042-.029-.073-.052l-.022-.085c-.046-.194-.081-.318-.105-.367-.026-.056-.093-.154-.199-.294-.127-.167-.21-.302-.263-.432-.043-.105-.076-.134-.145-.134-.104 0-.205.128-.223.282-.024-.032-.041-.053-.052-.063l-.126-.085-.2-.136c-.089-.06-.145-.102-.168-.126l-.116-.116c-.02-.02-.042-.031-.06-.031-.053 0-.108.09-.16.263l-.106.346c-.028.093-.042.207-.042.339 0 .175.012.236.074.376-.211-.023-.269-.034-.378-.074-.033-.011-.073-.021-.092-.021-.035 0-.056.024-.056.065 0 .023.019.096.042.156l.137.357c.106.277.448.529.72.529.065 0 .154-.019.268-.056.069-.022.124-.034.159-.034.122 0 .219.09.219.202 0 .055-.037.116-.084.137-.017.008-.144.047-.378.116-.177.052-.264.117-.463.346-.144.167-.2.214-.253.214-.04 0-.062-.027-.062-.074l.01-.14.004-.064c0-.292-.087-.571-.297-.955l-.295-.536c-.139-.254-.2-.447-.2-.641 0-.212.092-.399.211-.431l.158-.042c.019-.005.037-.016.052-.032.02-.021.032-.043.032-.06 0-.023-.019-.058-.053-.097-.018-.021-.081-.102-.189-.242-.182-.236-.295-.322-.515-.388-.127-.309-.334-.488-.704-.61l-.042-.073c-.126-.221-.403-.421-.58-.421h-.04c-.025-.193-.161-.392-.368-.536-.143-.1-.224-.159-.242-.179-.013-.013-.03-.046-.052-.094-.047-.105-.091-.148-.15-.148-.112 0-.205.105-.27.306-.043-.028-.075-.049-.095-.064-.119-.084-.186-.129-.2-.136-.048-.023-.171-.059-.368-.105-.257-.061-.48-.17-.536-.263l-.094-.157-.043-.019c-.052 0-.111.072-.136.166-.058.218-.095.444-.095.59 0 .373.123.616.505.997l-.001.09c0 .58.443.974 1.094.974l.105-.003.357-.022.034-.001c.193 0 .371.074.565.233.257.21.331.34.331.575 0 .074-.02.16-.1.423-.052.174-.077.336-.077.494 0 .434.318.973.75 1.272.111.077.194.178.194.238 0 .024-.012.044-.028.044-.028 0-.076-.029-.134-.083-.051-.046-.136-.099-.253-.157l-.168-.084-.189-.074c-.058-.022-.087-.054-.087-.094 0-.023.008-.056.024-.095.014-.036.021-.062.021-.078 0-.023-.018-.065-.053-.122l-.146-.242c-.145-.237-.248-.337-.432-.42-.118-.345-.287-.521-.535-.557-.199-.4-.373-.539-.726-.578-.048-.153-.132-.281-.315-.483-.074-.082-.12-.139-.136-.169-.082-.148-.089-.157-.127-.157-.049 0-.159.072-.241.157-.038.04-.07.082-.095.127l-.095.168c-.03.054-.061.078-.101.078l-.067-.004-.231-.032c-.145-.02-.351-.139-.42-.242l-.126-.189c-.013-.019-.032-.032-.051-.032-.094 0-.152.208-.152.552 0 .301.047.502.15.647l.295.409c.04.058.063.114.063.16 0 .047-.019.094-.053.135-.062.074-.122.119-.168.126l-.221.031c-.04.006-.055.015-.055.033 0 .019.012.044.034.073.073.091.162.169.263.231.26.159.431.221.606.221.178 0 .372-.063.55-.179l.305-.2c.043-.028.093-.043.146-.043.141 0 .247.084.347.274.097.183.139.331.139.487 0 .395-.283.68-.674.68-.182 0-.369-.072-.547-.21-.054-.042-.09-.082-.105-.116l-.084-.189c-.02-.046-.05-.074-.075-.074-.053 0-.172.152-.272.347-.052.102-.101.229-.147.379-.063.205-.089.36-.089.524l.016.284c-.143.224-.191.386-.191.651 0 .095.015.169.075.369-.089.146-.116.255-.116.468l.011.131.031.147.021.126c-.101.133-.131.221-.231.683-.056.261-.092.374-.136.442-.021.03-.032.052-.032.062 0 .062.147.117.314.117l.148-.011c-.036.097-.044.134-.044.212 0 .129.026.274.076.418.055.16.067.205.067.257 0 .125-.019.252-.046.321l-.084.21c-.019.048-.027.08-.027.109 0 .021.014.028.052.028.207 0 .6-.223.91-.515.307-.29.407-.524.407-.957l-.018-.231c.286-.25.411-.458.411-.683 0-.164-.054-.274-.211-.43-.284-.282-.348-.428-.348-.791 0-.558.167-.86.474-.86.272 0 .48.294.515.726l.031.399c.008.103.026.23.053.379.017.095.032.22.032.274 0 .142-.093.319-.369.641-.295.345-.394.53-.394.8 0 .322.223.559.526.559.075 0 .114-.011.205-.058.004.184.012.217.115.474.082.203.169.346.21.346.014 0 .037-.015.063-.042.046-.045.091-.084.137-.115.065-.045.1-.069.105-.074.023-.018.055-.05.095-.095.065.236.132.347.326.537.146.144.201.189.23.189.022 0 .05-.02.074-.053l.127-.168.178-.2c.068-.075.093-.141.126-.325l.105.063.168.094c.031.018.074.046.127.084.029.021.052.033.066.033.018 0 .037-.03.049-.075l.063-.242.137-.272c.041-.082.053-.145.053-.271l-.001-.066.071.003c.207 0 .385-.245.385-.528 0-.374-.298-.858-.687-1.114-.036-.127-.044-.178-.044-.279 0-.836.22-1.012 1.505-1.203.321-.048.609-.107.861-.179.042-.011.319-.102.831-.273.284-.095.475-.137.622-.137.157 0 .243.046.243.127 0 .144-.21.273-.855.525l-.914.357c-.929.364-1.369.931-1.369 1.767 0 .973.73 1.702 1.705 1.702.367 0 .725-.076 1.24-.264.665-.241.698-.252.77-.252.128 0 .198.088.218.273.017.157.059.221.146.221.13 0 .269-.119.369-.315.087-.171.137-.37.137-.545 0-.347-.183-.575-.515-.642-.222-.291-.503-.435-.846-.435-.419 0-.626.082-1.34.529-.256.16-.365.2-.553.2-.25 0-.435-.156-.435-.367 0-.192.155-.318.504-.411.209-.055.239-.07.347-.179.085.02.122.026.175.026.341 0 .762-.184 1.118-.488.648-.201 1.223-.898 1.223-1.485 0-.649-.561-1.229-1.189-1.229-.169 0-.507.053-.812.129"/>
      <path fill="#fddd04" d="M75.4892 573.9034c-.029.126-.039.191-.039.254l.007.082.032.168.011.136c0 .146-.025.251-.074.316l-.126.168c-.042.056-.078.124-.105.2-.014.039-.021.069-.021.089 0 .048.028.077.075.077.029 0 .04-.005.135-.061.04-.024.076-.036.103-.036.062 0 .097.102.097.28 0 .203-.019.315-.063.365l-.158.179-.137.116c-.033.028-.055.064-.055.092 0 .045.035.076.085.076.048 0 .148-.023.233-.053l.048-.011c.043 0 .06.026.06.088l-.003.039-.031.221-.063.231c-.021.074-.032.087-.079.087l-.027-.003-.262-.053-.042-.004c-.344 0-.708.291-.82.656l-.21.683c-.065.211-.222.411-.504.641-.086.07-.159.11-.21.115l-.19.022c-.035.003-.057.024-.057.052 0 .043.04.063.131.063l.346-.031c.126-.012.317-.061.568-.148.314-.107.526-.154.705-.154.525 0 .84.285.84.76 0 .325-.17.693-.431.929-.147.133-.295.232-.347.232-.029 0-.053-.024-.053-.055l.011-.135.001-.012c0-.053-.031-.093-.072-.093-.053 0-.113.069-.181.21-.2.413-.514.66-.841.66-.055 0-.095-.024-.095-.057 0-.021.018-.073.053-.151l.084-.189c.022-.05.034-.083.034-.097 0-.012-.02-.023-.045-.023-.048 0-.125.043-.178.098l-.158.169-.136.21c-.11.168-.198.244-.431.368-.13.069-.215.115-.252.136-.048.028-.093.043-.131.043-.037 0-.056-.019-.056-.055 0-.034.014-.074.04-.114.077-.12.108-.18.108-.21 0-.034-.025-.063-.054-.063-.082 0-.252.165-.401.389-.123.185-.19.391-.19.59 0 .452.33.787.776.787.23 0 .522-.097.79-.263l.494-.305c.172-.106.425-.189.575-.189.066 0 .205.023.308.053.046.012.088.03.126.052.03.017.05.041.05.059 0 .021-.012.041-.029.046l-.063.021-.231.043c-.06.01-.156.045-.284.105-.277.127-.453.214-.525.262-.173.113-.289.18-.347.199-.085.029-.139.068-.139.1 0 .031.017.047.047.047.031 0 .07-.015.113-.041.154-.097.289-.147.389-.147l.452-.158c.224-.078.551-.147.698-.147.191 0 .346.156.346.347 0 .124-.073.309-.183.462-.024.034-.05.053-.071.053-.042 0-.065-.029-.065-.084l.01-.085.017-.125c0-.136-.092-.243-.209-.243-.042 0-.098.01-.165.032l-.683.221c-.573.185-.837.242-1.124.242-.818-.001-1.44-.562-1.44-1.3 0-.837.587-1.376 2.038-1.874 1.429-.49 1.629-.61 1.629-.977 0-.211-.213-.4-.452-.4-.097 0-.181.008-.252.021-.048.01-.287.066-.714.168-.432.104-.824.148-1.308.148-1.031 0-1.603-.181-2.097-.663-.124-.12-.165-.139-.308-.139l-.07.003-.147.01-.02.001c-.123 0-.214-.058-.296-.19-.111-.178-.171-.272-.179-.283-.029-.04-.074-.063-.12-.063-.094 0-.151.071-.258.325-.052.124-.127.231-.22.315l-.211.19c-.033.03-.053.06-.053.081 0 .023.015.056.043.097.1.147.135.212.147.274.028.14.032.147.09.147.064 0 .083-.065.089-.305.001-.07.03-.166.084-.284l.116-.252c.014-.033.051-.053.094-.053.109 0 .247.255.284.526.03.226.054.294.101.294.019 0 .036-.008.046-.021.01-.015.042-.079.094-.189.028-.058.074-.112.137-.158.061-.045.103-.069.126-.074l.013-.001c.085 0 .114.056.134.254l.011.105-.022.147-.015.102c0 .067.024.109.063.109.023 0 .052-.016.079-.043l.105-.105c.07-.069.14-.105.208-.105.087 0 .141.036.141.093 0 .05-.02.101-.097.244l-.073.136c-.085.158-.152.221-.231.221l-.106-.011-.126-.052c-.038-.016-.066-.024-.082-.024-.019 0-.034.018-.034.042 0 .094.062.242.179.428.084.133.141.417.168.825.036.548.11.904.187.904.052 0 .071-.044.071-.161l-.005-.144-.004-.101c0-.098.021-.177.047-.177.09 0 .197.133.282.352.036.09.054.163.054.214l-.011.049-.211.389-.21.063c-.038.011-.065.028-.074.046v.258l-.021.126-.042.105-.052.116c-.23-.126-.339-.207-.42-.316-.083-.109-.13-.151-.171-.151-.027 0-.05.025-.05.055 0 .026.01.083.031.17l.007.06c0 .225-.137.448-.364.592l-.063-.085-.074-.104-.126-.148c-.04-.046-.075-.118-.105-.21-.014-.044-.022-.085-.022-.119l.001-.017.001-.039c0-.087-.009-.109-.048-.109l-.026.011-.074.105-.116.126-.178.116-.095.073c-.018-.042-.033-.073-.042-.094-.032-.073-.05-.13-.052-.169l-.011-.168-.011-.178.001-.03c0-.093-.021-.129-.077-.129-.019 0-.072.023-.123.053-.046.028-.1.043-.153.043-.163 0-.267-.113-.267-.29 0-.21.061-.411.168-.551l.136-.179c.038-.048.107-.088.111-.063l.026.221-.032.179-.006.08c0 .068.023.109.062.109.06 0 .095-.065.134-.242l.083-.389.085-.494c.022-.133.064-.274.126-.419.083-.199.143-.323.178-.369.116-.149.13-.17.13-.203 0-.026-.021-.049-.045-.049-.023 0-.055.011-.095.032-.036.018-.079.033-.126.041l-.083.012c-.168 0-.203-.145-.203-.846 0-.428.091-1.009.202-1.288l.22-.557c.035-.088.053-.177.053-.261 0-.767-1.017-1.97-2.133-2.524-.415-.206-.548-.403-.578-.861l-.011-.137c.169.087.239.116.358.147.313.081.373.121.42.273l.042.137c.016.051.042.07.284.199.082.045.141.092.168.137.053.088.097.135.125.135.026 0 .04-.012.04-.034l-.008-.038-.105-.3-.012-.073c0-.222.122-.404.348-.52.038.244.063.327.138.441l.188.294c.071.11.1.243.1.451 0 .117-.01.238-.026.327l-.008.084c0 .053.028.084.075.084.037 0 .065-.013.07-.031l.042-.2c.009-.043.052-.074.102-.074.101 0 .233.131.371.368.051.088.078.184.078.278l-.015.142-.032.158-.003.031c0 .068.039.117.094.117.023 0 .042-.009.046-.021l.063-.242c.021-.081.077-.137.136-.137.07 0 .192.121.263.262.063.126.095.268.095.431 0 .224.023.288.105.288.026 0 .048-.01.052-.025l.042-.136c.016-.05.046-.084.075-.084.044 0 .162.128.241.262.021.036.031.069.031.098 0 .045-.029.09-.095.144-.109.091-.116.105-.116.243 0 .131.022.2.116.367.051.089.097.173.137.252.133.26.18.326.229.326.04 0 .077-.044.077-.092 0-.027-.007-.057-.022-.087-.028-.059-.043-.101-.043-.125 0-.041.035-.075.078-.075.049 0 .112.022.186.063.028.017.126.055.294.116l.347.126c.057.021.128.031.21.031.064 0 .127-.006.189-.02.124-.029.204-.043.242-.043.095 0 .179.082.179.175 0 .07-.072.208-.169.319-.036.042-.054.074-.054.096l.012.041c.014.026.036.042.056.042.071 0 .237-.176.385-.41.905-1.425 1.23-1.77 1.839-1.954.619-.188.78-.333.78-.701 0-.2-.102-.434-.327-.749-.457-.641-.569-.899-.569-1.321l.001-.077c.052.022.09.039.115.052.087.044.143.069.169.074l.262.053c.079.015.149.116.149.214l-.002.027-.031.231-.002.031c0 .082.041.176.096.221.017.014.037.022.055.022.03 0 .065-.027.082-.064l.168-.357c.069-.146.15-.215.368-.315m-8.4722 7.6188c-.077 0-.116-.066-.124-.21l-.021-.2c-.024-.186-.026-.206-.026-.254 0-.15.045-.261.106-.261.067 0 .172.127.225.274.032.089.047.165.047.245 0 .07-.017.153-.047.238-.038.107-.097.168-.16.168"/>
      <path fill="#fddd04" d="M66.0524 583.1613l.001-.091c0-.13-.031-.286-.138-.687-.02-.074-.031-.146-.031-.191 0-.07.026-.147.084-.239.034-.055.067-.092.095-.105l.126-.063.02-.148c-.005-.057.006-.136.032-.231.029-.104.043-.21.043-.314 0-.088-.007-.123-.027-.123-.039 0-.109.109-.174.269-.101.254-.191.348-.335.348-.115 0-.189-.019-.327-.085.033-.041.054-.069.064-.084.007-.013.039-.073.094-.179l.148-.284c.101-.196.161-.308.178-.336.038-.061.088-.111.147-.147.018-.011.075-.042.168-.095.051-.028.086-.068.086-.097 0-.047-.038-.081-.09-.081h-.007l-.136.021-.077.008c-.041 0-.06-.038-.06-.117 0-.285.226-.613.62-.9.048-.034.085-.085.085-.113 0-.035-.036-.066-.077-.066-.025 0-.087.019-.134.042-.03.015-.054.022-.073.022-.052 0-.086-.042-.086-.107 0-.074.061-.223.191-.472.085-.162.212-.285.357-.346l.473-.2c.026-.011.042-.036.042-.063 0-.038-.027-.07-.063-.074l-.095-.01-.084-.011-.136.011h-.021c-.065 0-.092-.012-.092-.046 0-.053.059-.183.155-.343.112-.188.21-.295.271-.295.025 0 .05.021.065.053l.116.242c.019.042.114.115.273.21.101.061.2.1.294.116l.189.031c.05.009.076.043.076.1l-.002.026-.031.2-.021.221-.022.199-.021.231c-.002.06-.019.087-.052.087-.025 0-.068-.035-.095-.076-.165-.252-.28-.336-.456-.336-.56 0-.984.986-.984 2.289 0 .113.007.258.022.432.027.334.031.418.031.542 0 .566-.118.963-.357 1.203l-.148.147-.094.105m1.3556-7.6818c-.147.022-.216.038-.305.073-.025.01-.091.039-.2.084-.169.073-.295.106-.402.106-.158 0-.288-.053-.438-.179l.095-.073.21-.148.199-.157c.052-.041.113-.063.174-.063.205 0 .384.096.667.357m4.046-1.9125c.058.13.085.166.21.273.294.252.431.439.431.589v.231c0 .135.023.179.093.179.031 0 .056-.012.065-.032l.052-.126c.012-.029.047-.048.088-.048.041 0 .101.048.154.122l.105.147c.053.073.076.136.076.205 0 .041-.008.082-.023.121-.009.02-.033.076-.074.168-.024.054-.043.126-.043.164 0 .069.035.109.094.109.031 0 .059-.012.075-.032l.084-.105c.019-.023.048-.036.08-.036.038 0 .083.036.109.089l.084.168c.022.043.033.075.033.094 0 .033-.034.066-.096.095l-.137.063c-.179.083-.315.372-.315.674 0 .04.007.079.021.114l.074.179c.021.051.032.107.032.168 0 .109-.036.219-.106.326-.084.129-.13.203-.136.22-.063.167-.094.213-.146.213l-.054-.013-.073-.042-.116-.063-.136-.168-.148-.073c-.088-.045-.171-.232-.171-.387 0-.272.031-.348.392-.97.14-.239.213-.447.213-.6 0-.432-.385-.738-1.159-.923l-.483-.116c-.356-.085-.566-.33-.641-.746.146.076.205.087.465.087l.155-.003h.024c.14 0 .159.01.249.137.103.145.206.232.347.294l.168.074.136.073.042.011c.038 0 .058-.015.058-.043 0-.041-.038-.11-.1-.178-.121-.135-.168-.248-.168-.407 0-.101.025-.161.116-.276"/>
      <path fill="#fddd04" d="M70.13 575.1962c.121-.076.243-.186.315-.284.101-.137.115-.148.214-.148.042 0 .094.008.154.022l.094.021c.173.033.232.059.232.102 0 .025-.019.057-.053.087l-.116.105-.115.105c-.074.068-.221.118-.346.118-.127 0-.2-.025-.379-.128m3.4046-.568l.063.01.095.012.094-.012.047-.002c.234 0 .458.198.458.406 0 .072-.067.112-.186.112-.283 0-.461-.163-.571-.526m21.5638-.7248c-.025.096-.033.142-.033.193l.012.143c.026.197.034.291.034.409 0 .078-.023.14-.076.211l-.126.168c-.082.11-.116.193-.116.287 0 .06.015.081.057.081l.048-.01c.006-.003.037-.021.095-.053.042-.024.078-.036.104-.036.064 0 .095.098.095.296 0 .273-.051.404-.21.528l-.147.116c-.026.02-.043.054-.043.086 0 .05.031.083.078.083.029 0 .07-.008.123-.022l.115-.032.045-.01c.036 0 .052.028.052.089l-.002.037-.031.221c-.033.23-.071.317-.139.317l-.019-.002-.273-.053-.046-.004c-.329 0-.715.312-.816.656l-.2.683c-.059.204-.237.429-.504.641-.088.069-.164.109-.221.115l-.189.022c-.034.003-.057.025-.057.051 0 .044.036.065.114.065.266 0 .551-.055.931-.18.346-.112.534-.154.702-.154.527 0 .843.274.843.729 0 .228-.082.514-.2.697-.102.158-.275.32-.494.462-.033.022-.062.033-.083.033-.03 0-.054-.024-.054-.053l.011-.137.001-.012c0-.052-.031-.093-.068-.093-.058 0-.119.068-.185.21-.194.41-.506.658-.827.658-.071 0-.111-.024-.111-.068 0-.032.019-.081.055-.138.033-.054.065-.117.095-.189.016-.041.025-.072.025-.09 0-.02-.017-.03-.048-.03-.047 0-.125.043-.177.098-.105.112-.158.168-.158.169l-.136.21c-.106.163-.223.265-.421.368l-.262.136c-.053.028-.1.043-.135.043-.033 0-.05-.017-.05-.048 0-.033.017-.075.048-.121.056-.082.097-.171.097-.209 0-.036-.023-.064-.052-.064-.074 0-.206.132-.392.389-.132.184-.2.383-.2.59 0 .443.341.787.78.787.225 0 .507-.095.786-.263l.505-.305c.18-.109.425-.189.576-.189.084 0 .109.004.296.053.055.014.101.031.137.052.022.013.038.038.038.061 0 .042-.025.06-.091.065-.234.018-.72.209-1.04.41-.187.117-.303.184-.347.199-.087.031-.144.076-.144.113 0 .015.017.024.045.024l.062-.011.457-.167.441-.158c.217-.077.553-.147.707-.147.199 0 .337.138.337.337 0 .101-.025.214-.066.293-.064.125-.149.232-.183.232-.041 0-.064-.042-.064-.113l.005-.056.013-.135c0-.141-.077-.234-.198-.234-.047 0-.105.011-.172.033l-.683.221c-.593.191-.825.242-1.116.242-.826 0-1.448-.558-1.448-1.3 0-.838.574-1.363 2.049-1.874 1.432-.496 1.618-.61 1.618-.987 0-.217-.203-.39-.457-.39-.094 0-.177.008-.247.021-.062.013-.3.069-.714.168-.439.106-.811.148-1.308.148-1.042 0-1.543-.159-2.087-.663-.126-.117-.177-.139-.317-.139l-.072.003-.165.011c-.126 0-.22-.061-.297-.19l-.168-.283c-.023-.04-.069-.063-.121-.063-.108 0-.167.071-.268.325-.053.135-.126.243-.21.315l-.221.19c-.033.029-.052.056-.052.077 0 .021.018.057.052.101.033.043.065.092.095.147.032.059.05.102.052.127l.011.094c.008.031.039.053.075.053.069 0 .082-.047.083-.305 0-.067.028-.163.083-.284l.116-.252c.015-.033.052-.053.095-.053.109 0 .247.256.284.526.03.224.054.294.1.294.043 0 .062-.026.152-.21.028-.057.07-.111.126-.158.051-.043.095-.069.126-.074h.011c.087 0 .116.054.136.253l.01.105-.02.147-.015.102c0 .067.024.109.063.109.022 0 .051-.016.078-.043l.105-.105c.07-.07.141-.106.211-.106.09 0 .146.04.146.104 0 .053-.011.078-.105.234-.009.014-.033.059-.074.136-.093.177-.136.221-.218.221l-.108-.011-.136-.052c-.04-.016-.069-.024-.084-.024-.017 0-.032.019-.032.042 0 .095.062.244.179.428.072.114.133.396.179.825l.052.494c.032.303.066.41.127.41.022 0 .039-.009.041-.021l.032-.158v-.126c0-.153.016-.278.036-.278.045 0 .109.053.174.142.046.063.081.133.105.21.035.112.053.205.053.275 0 .243-.102.348-.431.44-.033.008-.055.02-.063.031l-.011.094v.179l-.021.126-.042.105-.052.116-.084-.053c-.215-.134-.267-.174-.337-.263-.095-.12-.129-.15-.168-.15-.029 0-.052.02-.052.045l.042.179.003.031c0 .23-.129.453-.361.621l-.073-.085-.074-.104-.126-.148c-.073-.085-.117-.202-.117-.311l.002-.035.001-.035c0-.083-.013-.111-.052-.111l-.023.009-.084.105-.105.126-.189.116-.095.073c-.101-.22-.105-.244-.105-.526v-.089c0-.094-.031-.152-.081-.152-.026 0-.069.018-.129.052-.047.028-.103.043-.156.043-.153 0-.265-.129-.265-.307 0-.192.041-.324.169-.534.082-.136.191-.247.241-.247.006 0 .02.097.032.226l-.032.179-.007.08c0 .068.024.109.063.109.06 0 .095-.065.134-.242l.084-.389.084-.494c.022-.133.065-.274.126-.419.082-.199.143-.323.179-.369.116-.149.129-.17.129-.203 0-.026-.021-.049-.045-.049-.023 0-.055.011-.095.032-.036.018-.079.033-.126.041l-.077.012c-.174 0-.209-.14-.209-.837 0-.436.09-1.016.202-1.297l.221-.557c.034-.088.052-.177.052-.262 0-.769-1.039-1.997-2.133-2.523-.426-.205-.552-.418-.589-.998.182.086.255.115.368.147.31.087.376.13.42.273l.042.137c.019.058.058.088.274.199.081.042.138.09.168.137.055.09.097.135.124.135.03 0 .047-.02.047-.054l-.003-.018-.116-.3-.013-.074c0-.219.124-.403.349-.519.015.056.026.097.032.126.037.16.073.267.105.315l.2.294c.072.107.086.177.086.448l-.013.33-.006.085c0 .054.026.084.073.084.037 0 .067-.014.07-.032l.031-.2c.007-.042.051-.074.103-.074.101 0 .232.13.37.368.054.092.076.165.076.251 0 .067-.015.214-.034.327l-.004.061c0 .053.03.086.08.086.026 0 .047-.008.051-.02l.073-.242c.025-.082.081-.137.138-.137.162 0 .329.33.346.683.01.222.038.299.106.299.026 0 .046-.01.051-.026l.042-.136c.015-.05.046-.084.075-.084.027 0 .08.046.146.126.037.045.068.09.094.136.021.037.032.075.032.111 0 .053-.011.068-.095.131-.077.058-.115.132-.115.221 0 .152.065.316.252.641.171.295.194.329.236.329.04 0 .069-.039.069-.09 0-.031-.007-.062-.021-.092-.029-.061-.043-.103-.043-.126 0-.041.037-.074.083-.074.051 0 .116.022.191.063.045.025.14.064.284.116.195.07.315.113.357.126.065.021.141.032.216.032.061 0 .122-.007.183-.021.12-.029.202-.043.243-.043.095 0 .169.073.169.166 0 .041-.029.122-.065.181-.054.088-.086.138-.095.147-.046.049-.064.076-.064.095l.012.042c.013.026.035.042.059.042.083 0 .245-.169.393-.41.824-1.345 1.222-1.771 1.828-1.954.631-.192.78-.325.78-.702 0-.199-.106-.441-.328-.748-.42-.583-.568-.925-.568-1.312l.001-.086c.051.022.09.039.115.052.086.044.142.069.169.074l.262.053c.082.016.148.115.148.22l-.001.021-.021.231-.001.036c0 .131.063.238.141.238.03 0 .064-.027.081-.064l.168-.357c.069-.146.149-.215.368-.315m-8.617 7.2088l-.011-.168-.003-.103c0-.171.027-.244.091-.244.07 0 .179.131.228.274.03.089.054.213.054.284 0 .051-.013.098-.054.199-.048.115-.096.168-.155.168-.089 0-.132-.116-.15-.41"/>
      <path fill="#fddd04" d="M85.6615 583.1613l.001-.091c0-.096-.029-.274-.074-.445-.04-.15-.061-.23-.064-.242-.014-.061-.021-.125-.021-.191 0-.148.072-.286.179-.344l.116-.063.021-.148c-.005-.057.005-.135.031-.231.029-.105.044-.211.044-.316 0-.087-.008-.121-.028-.121-.04 0-.109.109-.173.269-.102.254-.192.348-.335.348-.116 0-.19-.019-.327-.085.109-.142.176-.261.304-.547.168-.372.232-.447.494-.578.058-.029.097-.067.097-.097 0-.049-.038-.082-.096-.082-.023 0-.091.01-.148.022l-.078.007c-.04 0-.059-.037-.059-.12 0-.278.238-.617.631-.896.053-.038.085-.077.085-.107 0-.017-.012-.036-.033-.051-.018-.014-.037-.021-.056-.021-.022 0-.07.017-.122.042-.031.016-.058.024-.078.024-.05 0-.082-.049-.082-.124 0-.095.07-.264.191-.457.112-.177.233-.298.347-.346l.473-.2c.025-.011.042-.035.042-.06 0-.037-.026-.069-.063-.077l-.084-.01-.094-.011-.127.011-.021.001c-.065 0-.091-.014-.091-.048 0-.051.047-.157.154-.342.116-.202.198-.295.26-.295.025 0 .05.021.066.053l.116.242c.015.032.11.105.273.21.099.064.2.103.294.116.252.033.274.045.274.15 0 .036-.011.106-.032.207-.011.053-.022.127-.032.221l-.02.199-.022.231c-.002.058-.019.087-.052.087-.022 0-.057-.032-.084-.076-.124-.201-.306-.337-.453-.337-.587 0-.987.936-.987 2.31l.01.412.032.494.006.175c0 .424-.148.861-.363 1.076l-.147.147-.095.105m1.3555-7.6818c-.221.038-.255.048-.504.157-.173.077-.284.107-.395.107-.166 0-.294-.052-.446-.18l.094-.073.211-.148.2-.157c.051-.041.113-.063.177-.063.205 0 .379.093.663.357m4.046-1.9125c.058.13.085.166.21.273.294.252.431.439.431.589v.231c0 .135.023.179.093.179.031 0 .057-.012.065-.032l.052-.126c.012-.029.047-.047.089-.047.075 0 .128.055.258.268.055.09.077.148.077.207 0 .039-.009.078-.025.119-.008.019-.032.075-.073.168-.024.054-.043.126-.043.164 0 .069.035.109.094.109.031 0 .059-.012.075-.032l.084-.105c.019-.023.023-.036.055-.036.039 0 .108.036.134.089l.084.168c.022.042.032.075.032.096 0 .034-.033.071-.084.093l-.147.063c-.173.074-.316.37-.316.652 0 .031.011.077.032.136l.063.179c.021.059.032.118.032.175 0 .103-.033.201-.106.319-.072.117-.114.191-.126.22-.06.156-.097.209-.149.209-.037 0-.072-.014-.134-.051l-.105-.063-.148-.168-.147-.073c-.088-.045-.172-.235-.172-.394 0-.227.05-.35.393-.963.145-.259.214-.451.214-.598 0-.428-.437-.78-1.149-.925-.852-.174-1.037-.315-1.135-.862.147.076.205.087.465.087l.155-.003h.024c.14 0 .16.01.249.137.103.145.205.232.346.294l.169.074.136.073.042.011c.038 0 .059-.015.059-.044 0-.036-.034-.097-.101-.177-.101-.123-.16-.251-.16-.347 0-.14.023-.211.108-.336"/>
      <path fill="#fddd04" d="M89.739 575.1962c.121-.076.243-.186.315-.284.101-.137.115-.148.214-.148.042 0 .094.008.154.022l.095.021c.178.034.233.06.233.108 0 .028-.016.058-.044.081l-.126.105-.116.105c-.071.065-.218.116-.331.116-.131 0-.237-.034-.394-.126m3.4045-.568l.063.01.106.012.084-.012.056-.003c.107 0 .162.012.206.046.065.049.132.129.2.241.027.046.042.087.042.12 0 .071-.066.112-.18.112-.289 0-.466-.161-.577-.526M74.47 552.4234l.063.126.147.158c.125.134.192.323.192.544 0 .108-.019.225-.055.339-.027.084-.044.156-.044.185 0 .067.05.13.101.13.021 0 .05-.019.079-.053l.158-.178c.097-.111.13-.131.252-.158l.011.147.01.173c0 .251-.092.533-.231.71-.084.107-.122.172-.122.21 0 .038.028.073.057.073.01 0 .026-.007.044-.021.101-.075.153-.106.181-.106.051 0 .096.126.096.266 0 .199-.083.428-.214.587-.067.081-.109.134-.126.157-.014.02-.021.04-.021.06 0 .045.037.077.091.077.04 0 .064-.01.13-.053.031-.02.059-.031.08-.031.082 0 .112.116.112.428l-.003.129-.011.189c-.012.223-.031.262-.126.262h-.084c-.512 0-.751.325-.883 1.199-.095.632-.331 1.08-.62 1.177-.173.058-.235.095-.235.141 0 .03.048.058.101.058.037 0 .126-.023.198-.053.419-.169.772-.252 1.08-.252.503 0 .9.371.9.841 0 .359-.171.724-.478 1.019-.084.082-.174.136-.263.158l-.019.002-.054-.018.021-.152.042-.105.012-.044c0-.023-.022-.04-.05-.04-.031 0-.06.016-.078.042l-.189.284c-.149.224-.478.412-.721.412-.087 0-.141-.039-.141-.1 0-.03.028-.083.064-.123.054-.06.095-.134.095-.168l-.012-.042c-.011-.024-.026-.04-.042-.042l-.01-.001c-.051 0-.076.023-.304.284-.188.214-.57.422-.775.422-.029 0-.057-.012-.077-.033-.013-.013-.021-.029-.021-.04 0-.032.027-.074.073-.118.066-.059.117-.13.117-.16 0-.021-.027-.04-.059-.04-.06 0-.195.087-.446.285-.392.308-.568.598-.568.936 0 .406.291.725.662.725.218 0 .507-.104.705-.253l.515-.389c.235-.178.524-.273.826-.273.066 0 .129.014.182.042.046.023.074.051.074.07 0 .014-.039.032-.095.046-.186.044-.336.109-.441.189l-.525.399c-.195.148-.332.243-.41.284-.278.145-.332.18-.332.212 0 .016.027.029.061.029.028 0 .059-.007.092-.021l.273-.116c.088-.037.236-.124.442-.262.562-.376.848-.497 1.178-.497.315 0 .547.224.547.526 0 .059-.016.126-.044.181l-.053.105c-.018.038-.052.066-.063.053l-.031-.043-.032-.22c-.001-.008-.012-.034-.032-.074-.02-.041-.045-.077-.073-.104-.057-.057-.105-.075-.192-.075-.163 0-.346.087-.838.401-.498.317-.947.482-1.303.482-.756 0-1.366-.609-1.366-1.363 0-1.053.642-1.528 2.659-1.968.766-.167 1.103-.391 1.103-.732 0-.312-.251-.508-.65-.508-.121 0-.216.007-.285.021-.068.014-.429.112-1.082.295-.451.125-.957.196-1.404.196-.79 0-1.324-.235-1.686-.742-.043-.061-.084-.096-.112-.096-.022 0-.053.015-.087.042l-.148.116c-.103.081-.267.144-.377.144-.079 0-.155-.031-.222-.092-.053-.047-.091-.073-.107-.073-.059 0-.167.132-.25.305-.117.246-.179.491-.179.715 0 .105.033.178.079.178.037 0 .064-.028.079-.084l.084-.305c.047-.17.142-.305.215-.305.032 0 .088.047.153.127.039.048.067.098.084.147.065.193.082.22.134.22.062 0 .092-.037.134-.23.008-.035.02-.089.068-.18.043-.08.086-.143.126-.189.032-.035.072-.054.109-.054.093 0 .177.155.177.324l-.002.045-.012.195c0 .076.011.099.054.099.025 0 .044-.013.074-.052.045-.057.106-.107.178-.147.064-.034.116-.052.15-.052.031 0 .067.019.102.052.028.027.044.057.044.083 0 .031-.037.079-.149.191-.06.06-.131.204-.21.42-.029.082-.069.137-.099.137-.008 0-.032-.007-.069-.022l-.136-.052-.095-.042-.036-.008c-.045 0-.081.032-.081.073 0 .041.096.154.212.25.083.07.132.172.136.284.006.176.039.315.074.315l.031.368c.016.185.091.532.158.724.013.039.029.064.042.064.03 0 .055-.078.055-.166l-.003-.054-.006-.107c0-.133.022-.202.063-.202.046 0 .098.067.143.183l.095.241c.028.071.042.138.042.196 0 .205-.123.353-.292.353l-.076-.013c-.041-.014-.066-.021-.075-.021-.056 0-.102.06-.102.132l.009.151-.011.211-.042.22-.011.105-.094-.052-.116-.095-.168-.136-.136-.116c-.024-.02-.052-.032-.078-.032-.08 0-.091.022-.091.186l.001.041c0 .132-.058.236-.274.488-.011.015-.029.035-.052.063l-.042-.073-.116-.189-.115-.295-.022-.189c-.006-.054-.026-.096-.048-.096-.021 0-.057.028-.098.075-.161.184-.212.218-.452.305l-.021-.074c-.038-.124-.059-.197-.063-.221l-.011-.198-.001-.084.001-.068c0-.057-.021-.092-.057-.092l-.006.001c-.004.002-.025.02-.063.053-.024.022-.069.033-.127.033-.196 0-.321-.106-.321-.275 0-.125.044-.219.238-.514.085-.131.184-.234.224-.234.026 0 .047.07.047.15l-.019.126c-.02.06-.03.115-.03.161 0 .058.017.091.049.091.095 0 .192-.273.233-.652l.042-.389c.015-.138.058-.28.126-.42.096-.196.19-.33.274-.389.1-.071.162-.14.162-.179 0-.033-.027-.063-.055-.063-.004 0-.075.025-.213.074l-.088.013c-.21 0-.28-.12-.28-.481 0-.437.294-1.067.621-1.329l.483-.389c.245-.197.431-.524.431-.757 0-.307-.337-.609-.914-.819l-.347-.126c-.27-.098-.377-.272-.484-.778.138.043.198.054.29.054l.047-.001.157-.004c.14 0 .242.085.242.203v.095c0 .028.039.067.095.095.094.045.143.07.147.073l.115.095c.019.014.04.023.059.023.032 0 .057-.03.057-.065 0-.026-.007-.059-.021-.095-.036-.093-.055-.22-.055-.361 0-.258.04-.396.17-.585.013.07.023.115.032.137.022.053.082.148.179.283.159.223.276.494.276.64l-.003.044-.031.242c0 .043.019.085.052.115.023.02.048.032.072.032.044 0 .072-.028.107-.106.025-.058.055-.094.075-.094.037 0 .109.096.156.21.035.084.052.159.052.222 0 .039-.01.084-.031.135-.022.053-.034.094-.034.12 0 .027.009.041.044.069.017.014.036.022.054.022.02 0 .042-.008.062-.022l.094-.063c.032-.021.061-.032.084-.032.043 0 .103.047.148.117.091.14.149.256.149.299 0 .028-.018.048-.076.089-.209.148-.347.371-.347.562 0 .044.011.096.032.153l.105.283c.053.143.081.217.084.221l.031.013c.035 0 .057-.031.057-.082 0-.034-.008-.075-.025-.12-.025-.069-.044-.152-.044-.199 0-.076.039-.116.11-.116.052 0 .112.014.176.041.318.138.57.212.721.212.143 0 .232-.032.382-.137.04-.028.074-.044.097-.044.018 0 .041.017.061.044.013.018.021.036.021.052 0 .038-.022.087-.063.136-.055.067-.075.108-.075.149 0 .033.022.054.058.054.164 0 .422-.522.668-1.348.195-.652.249-.718.872-1.072.528-.298.729-.593.729-1.073 0-.473-.131-1.077-.403-1.869-.086-.251-.123-.421-.123-.561 0-.111.021-.218.103-.501.038-.135.063-.216.073-.241.012-.032.04-.084.084-.158"/>
      <path fill="#fddd04" d="M72.0317 553.8945c.063.145.082.18.2.357.17.257.231.393.231.515v.168c0 .159.028.232.091.232.023 0 .044-.012.056-.032l.053-.084c.016-.027.044-.043.074-.043.031 0 .088.042.118.089.076.115.123.262.123.375l-.011.115-.01.12c0 .062.026.09.086.09.041 0 .058-.017.093-.094.023-.052.053-.085.079-.085.029 0 .062.024.088.064l.085.126.063.095.015.05c0 .029-.022.056-.078.096-.195.141-.28.356-.294.747-.011.296-.029.489-.053.578-.005.02-.069.171-.189.452-.047.11-.09.236-.126.378-.025.097-.056.126-.132.126-.285 0-.501-.244-.501-.566 0-.19.079-.489.223-.853.203-.511.256-.692.256-.873 0-.386-.154-.554-.687-.745-.602-.216-.884-.526-.988-1.082.047.018.082.032.105.041.067.028.117.045.147.053l.169.042c.144.036.26.118.283.2l.042.147c.011.035.031.059.064.073l.094.042.095.042.021-.042-.042-.136c-.014-.045-.022-.128-.022-.245 0-.231.046-.366.179-.533m-5.6432 9.7208c.014-.059.021-.098.021-.118 0-.033-.014-.123-.042-.271l-.019-.214c0-.187.034-.387.093-.553.053-.151.067-.199.067-.24l-.004-.044c-.009-.043-.026-.075-.041-.075-.02 0-.058.023-.107.065-.12.105-.252.158-.388.158-.044 0-.105-.007-.179-.021l.053-.116.158-.389.22-.336.231-.158c.023-.015.044-.037.063-.063.021-.029.032-.053.032-.069 0-.019-.019-.035-.042-.036l-.21-.01c-.033-.002-.058-.022-.058-.045 0-.035.03-.141.089-.313l.105-.305.179-.168.189-.137c.056-.039.089-.085.089-.119 0-.029-.018-.057-.036-.059l-.106-.011c-.034-.003-.053-.033-.053-.084 0-.079.074-.221.211-.41.162-.22.277-.293.463-.293h.157c.075 0 .122-.037.122-.097 0-.049-.032-.079-.101-.093-.146-.03-.19-.06-.19-.127 0-.027.019-.067.054-.114l.084-.116c.069-.096.148-.159.199-.159.029 0 .095.029.153.096.094.108.202.196.341.231.365.092.441.13.441.215 0 .03-.014.072-.041.121-.117.208-.158.343-.158.515 0 .13-.034.222-.082.222-.02 0-.052-.033-.086-.085-.087-.133-.234-.222-.368-.222-.364 0-.802.569-1.019 1.325-.051.175-.078.374-.078.567 0 .198.027.419.078.642.07.308.108.479.115.515l.014.142c0 .261-.241.596-.613.856"/>
      <path fill="#fddd04" d="M67.1454 562.1547c-.078-.147-.149-.476-.149-.684 0-.123.041-.22.092-.22.017 0 .039.02.057.053l.115.21c.02.035.039.072.076.128.041.063.073.123.073.157 0 .123-.115.278-.264.356m1.1556-4.7395c.023-.024.041-.041.053-.052.046-.046.073-.074.084-.085.205-.212.235-.233.334-.233.091 0 .283.053.391.107.045.023.073.051.073.072 0 .014-.038.056-.104.117l-.116.105c-.087.08-.218.154-.279.154-.121 0-.245-.054-.436-.185m2.4386-1.902c.112-.047.152-.067.21-.105.095-.062.15-.098.168-.105.032-.014.089-.022.166-.022.048 0 .092.008.128.022l.221.084.21.074c.057.019.095.051.095.08 0 .016-.048.039-.116.057-.047.011-.1.028-.158.052-.258.103-.296.118-.388.118-.206 0-.413-.1-.536-.255m2.6584-2.1125c.07.169.119.197.357.21.27.015.527.499.527.826 0 .032-.011.059-.025.059-.013 0-.038-.012-.071-.034-.076-.049-.128-.081-.157-.094l-.305-.137c-.203-.09-.382-.361-.382-.575 0-.072.013-.133.056-.255m19.1572 2.512l.042.115.042.148c.008.026.047.087.115.178.107.141.161.316.161.522 0 .065-.016.125-.055.203-.021.042-.032.075-.032.098 0 .014.007.031.021.049.014.018.029.029.042.032l.007.001c.027 0 .073-.031.109-.074.044-.055.084-.085.107-.085.047 0 .097.08.124.2.014.063.021.098.021.105 0 .05-.042.183-.094.294-.021.042-.031.078-.031.107 0 .038.025.067.058.067.03 0 .081-.032.141-.09.028-.027.056-.042.078-.042.067 0 .114.067.163.231.031.103.043.148.043.165 0 .031-.014.049-.038.049l-.036-.004-.125-.012c-.192 0-.463.132-.59.286l-.294.357c-.114.138-.272.347-.262.347l-.242.157c-.04.026-.064.059-.064.087 0 .039.04.065.1.065.056 0 .228-.061.542-.193.303-.129.779-.233 1.065-.233.503 0 .916.407.916.899 0 .27-.12.52-.416.868-.055.065-.15.128-.194.128-.034 0-.058-.026-.058-.061 0-.03.011-.07.032-.12.013-.032.021-.066.021-.096 0-.048-.019-.075-.051-.075-.066 0-.135.108-.191.297-.069.235-.206.374-.526.536-.122.062-.281.119-.333.119-.02 0-.034-.019-.034-.047 0-.039.015-.082.042-.124.046-.071.075-.14.084-.2v-.01c0-.041-.021-.064-.058-.064-.067 0-.083.017-.236.253-.079.121-.291.28-.473.357-.058.025-.119.039-.179.042l-.006.001c-.038 0-.067-.018-.067-.041 0-.009.016-.042.047-.096l.015-.06c0-.032-.021-.056-.049-.056-.063 0-.259.159-.413.336-.166.192-.273.437-.273.629 0 .402.383.759.814.759.108 0 .199-.019.268-.053l.368-.189.431-.285c.248-.162.588-.285.794-.285.076 0 .134.011.331.065.102.028.166.069.166.108l-.004.008-.036.021-.232.02c-.128.013-.42.144-.651.295l-.484.315-.43.179c-.033.013-.053.035-.053.055 0 .022.022.04.048.04.001 0 .041-.008.12-.021l.4-.116c.099-.029.261-.103.483-.221.439-.233.723-.336.934-.336.243 0 .421.167.421.394 0 .075-.017.2-.042.299-.012.049-.033.096-.063.137-.018.027-.038.042-.052.042-.029 0-.047-.032-.047-.086l.005-.072.004-.061c0-.194-.075-.262-.29-.262-.174 0-.408.07-.944.282-.5.197-.813.273-1.125.273-.79 0-1.484-.646-1.484-1.382 0-.636.422-1.122 1.285-1.477l.894-.368c.738-.304 1.009-.521 1.009-.808 0-.24-.222-.394-.57-.394-.15 0-.337.042-.681.152-.837.266-1.38.377-1.858.377-.78 0-1.336-.213-1.778-.682-.059-.062-.093-.081-.145-.081-.035 0-.072.014-.15.06-.08.047-.168.076-.231.076-.076 0-.196-.066-.252-.139l-.105-.137c-.031-.04-.065-.063-.093-.063-.076 0-.211.129-.296.284-.052.095-.087.187-.105.273-.013.067-.022.175-.022.288l.012.196.031.209c.015.101.026.161.032.179.008.025.028.042.05.042.055 0 .079-.05.079-.165l-.003-.066-.002-.048c0-.298.118-.572.248-.572.103 0 .193.183.269.547.015.073.044.115.08.115.042 0 .067-.053.098-.21.02-.102.087-.243.158-.336.041-.054.085-.085.12-.085.086 0 .142.129.185.431.017.118.052.191.092.191.017 0 .033-.009.044-.023.008-.009.032-.047.074-.115.026-.043.066-.079.115-.105.053-.028.095-.042.123-.042.033 0 .068.015.098.042.047.042.074.073.074.086 0 .016-.023.049-.063.093-.069.074-.123.172-.189.347-.044.115-.076.195-.095.241-.016.038-.034.064-.053.074l-.033.008-.061-.008c-.012-.003-.086-.025-.221-.063l-.068-.01c-.03 0-.049.019-.049.05 0 .027.037.078.086.117.265.212.423.567.483 1.082.036.314.076.433.21.62.029.04.053.064.066.064.04 0 .062-.033.062-.093 0-.041-.011-.091-.033-.149-.016-.04-.023-.084-.023-.128l.002-.04.021-.064.115.043.126.147c.075.087.138.284.138.43 0 .1-.025.17-.085.242-.066.079-.112.111-.159.111l-.072-.005-.074-.006c-.069 0-.102.02-.102.061l.018.081.011.116-.063.262-.053.127-.031.104-.074-.052-.158-.094c-.04-.025-.083-.064-.126-.116-.149-.181-.159-.19-.219-.19-.038 0-.059.014-.059.041l.005.044c.021.096.032.169.032.218 0 .183-.133.459-.295.612-.218-.21-.336-.442-.336-.662v-.126c0-.049-.016-.074-.048-.074h-.004c-.026.004-.052.024-.074.053l-.126.168c-.009.012-.065.057-.168.137-.02.015-.048.039-.084.073l-.042-.084c-.105-.208-.141-.333-.148-.504-.005-.14-.016-.182-.049-.182-.016 0-.039.009-.066.024-.16.09-.174.095-.243.095-.189 0-.318-.135-.318-.334 0-.077.043-.195.13-.35.096-.171.241-.328.304-.328.018 0 .022.013.022.065v.022l-.011.178-.021.137-.001.019c0 .04.015.058.047.058.096 0 .178-.278.249-.834.061-.488.196-.825.409-1.019.055-.05.086-.091.086-.114 0-.018-.019-.033-.042-.033-.031 0-.079.019-.138.053-.038.022-.077.033-.114.033-.105 0-.223-.123-.244-.254l-.094-.599-.074-.841c-.014-.159.008-.372.063-.63.049-.227.074-.394.074-.498 0-.63-.392-1.128-1.04-1.32l-.673-.2c-.42-.124-.625-.4-.683-.914.108.086.14.1.305.126l.199.031c.084.014.145.032.179.053.018.012.058.051.116.116l.178.199c.068.076.128.119.166.119.024 0 .045-.028.045-.061 0-.038-.026-.099-.074-.173-.05-.078-.077-.172-.077-.271 0-.134.036-.219.171-.412.018.063.032.106.043.126.017.034.07.108.157.22.146.188.251.385.252.473.003.163.017.217.058.217.036 0 .042-.009.058-.101.004-.023.015-.044.031-.063.025-.027.048-.042.065-.042.013 0 .042.015.083.042.072.048.129.098.168.147.043.054.078.118.105.189.035.093.053.159.053.199l-.001.135c0 .037.015.066.035.066.025 0 .078-.055.112-.116.024-.041.039-.053.067-.053h.007c.038.004.071.019.095.043.128.125.21.278.21.393l-.01.194-.043.159-.002.014c0 .032.024.059.051.059.048 0 .1-.066.172-.22.034-.073.064-.107.096-.107.05 0 .089.037.188.18l.094.136c.021.03.032.067.032.106 0 .037-.011.073-.032.104l-.084.126c-.014.022-.021.059-.021.106 0 .143.052.304.158.494.077.137.122.225.136.263.017.043.035.063.059.063.019 0 .036-.026.036-.053l-.01-.116v-.168c.014-.038.04-.053.09-.053.032 0 .069.007.109.022l.263.094c.062.023.143.062.241.116.412.228.539.275.742.275.122 0 .277-.046.499-.149.045-.021.082-.032.108-.032.03 0 .064.02.091.053.021.024.032.053.032.079 0 .039-.015.085-.042.131-.034.058-.064.131-.064.157 0 .029.018.046.048.046.024 0 .06-.026.079-.056.031-.05.112-.19.241-.42.197-.348.451-.591.673-.641l.462-.105c.143-.033.18-.088.18-.267 0-.326-.155-.613-.421-.784l-.379-.242c-.137-.088-.252-.329-.252-.531 0-.129.031-.359.074-.54l.073.073.179.105.158.158.084.231.083.21c.042.102.089.169.123.169.036 0 .057-.058.057-.16l-.001-.03-.001-.039c0-.151.021-.217.138-.444"/>
      <path fill="#fddd04" d="M86.3447 552.7284c.127.118.149.127.505.2.287.058.421.189.483.472.045.209.074.248.262.358.061.035.107.07.137.105.023.026.042.042.052.042.021 0 .037-.021.037-.047 0-.036-.023-.096-.068-.174-.029-.05-.042-.113-.042-.2 0-.169.034-.284.126-.42.064.14.099.179.263.295.209.146.288.315.326.693.016.16.046.243.09.243.019 0 .037-.013.046-.032l.074-.158c.01-.021.036-.035.066-.035.03 0 .086.031.133.077l.148.136c.062.058.103.203.126.442.008.087.038.146.073.146.022 0 .043-.021.053-.051l.063-.211c.015-.05.045-.084.075-.084.013 0 .043.018.083.053.057.048.106.101.147.157.048.066.073.14.073.211v.178c0 .039.015.08.042.115.021.027.038.043.047.043.023 0 .047-.021.058-.053l.042-.116c.019-.05.058-.084.099-.084.055 0 .111.048.196.168.023.035.045.062.063.084.047.058.073.105.073.134 0 .014-.014.041-.042.076-.153.2-.231.44-.231.714 0 .349.132.643.536 1.189.241.326.378.631.378.842 0 .061-.028.09-.083.09-.037 0-.076-.012-.127-.039-.039-.021-.066-.032-.08-.032-.019 0-.044.016-.067.043l-.074.084-.052.084c-.021.033-.054.053-.087.053-.006 0-.033-.008-.081-.022l-.095-.01c-.109-.005-.15-.044-.15-.147l.003-.063.002-.047c0-.092-.081-.234-.191-.332l-.2-.179c-.246-.219-.437-.571-.437-.804 0-.1.032-.262.091-.456.094-.315.127-.464.127-.567 0-.503-.771-1.167-2.198-1.892-.724-.368-.906-.586-.906-1.085l.013-.187m-.6937 11.0234v-.105l.001-.156c0-.056-.005-.095-.022-.17-.034-.146-.042-.197-.042-.238 0-.201.028-.3.147-.508.065-.115.108-.253.108-.353 0-.042-.017-.067-.046-.067-.018 0-.037.012-.051.031l-.085.116c-.066.092-.13.116-.3.116l-.183-.011c.073-.18.097-.248.126-.368.085-.343.097-.368.284-.535.188-.171.205-.192.205-.252 0-.048-.032-.085-.073-.085l-.069.011-.041.004c-.058 0-.109-.105-.109-.223 0-.066.026-.174.066-.265.026-.061.052-.104.074-.126l.105-.105c.027-.027.042-.066.042-.107 0-.052-.029-.094-.064-.094-.021 0-.053.012-.094.033-.026.014-.051.021-.074.021-.047 0-.07-.028-.07-.086l.018-.156.063-.273c.014-.061.054-.129.115-.2.054-.061.108-.104.158-.126.133-.058.204-.09.21-.095.02-.014.032-.045.032-.084 0-.04-.032-.073-.07-.073-.012 0-.048.007-.109.021l-.107.01c-.106 0-.114-.005-.114-.088 0-.053.007-.108.022-.164l.042-.168c.044-.177.102-.273.165-.273.014 0 .041.015.076.042.152.116.458.221.649.221.198 0 .423-.024.507-.053.048-.016.082-.025.101-.025.026 0 .034.026.036.119l.021.19.042.325.031.242v.137c-.037-.032-.066-.057-.084-.074-.179-.168-.292-.221-.476-.221-.484 0-.761.543-.761 1.492 0 .391.058.943.166 1.577.022.134.033.227.033.292 0 .345-.219.683-.601.927"/>
      <path fill="#fddd04" d="M86.3657 561.3983l.095.094.094.084c.078.069.142.215.142.323 0 .049-.012.096-.037.15-.036.078-.106.149-.149.149-.036 0-.068-.087-.082-.222l-.021-.158-.032-.158-.01-.157v-.105m-.9247-4.2985c.107-.04.13-.058.242-.189.145-.169.226-.21.419-.21.052 0 .102.006.148.021l.137.042.105.032c.05.014.084.036.084.053 0 .022-.083.091-.21.178-.084.057-.168.106-.252.147-.092.044-.167.065-.241.065-.148 0-.291-.046-.432-.139m1.429-3.0788c.186.081.251.114.462.231.185.102.286.158.305.168.195.103.284.175.284.23 0 .069-.118.109-.321.109-.407 0-.741-.278-.741-.618l.011-.12m4.2666 2.6695c.149.03.199.069.273.072l.189-.009c.023.008.066.036.126.083.034.026.083.062.148.106.21.143.22.152.22.198 0 .059-.084.087-.262.087-.331 0-.532-.156-.694-.537"/>
      <path fill="#231f20" d="M69.5938 582.016l-.052.147-.015.085c0 .086.043.133.162.178.207.078.273.113.357.189l.116.105.011.004c.03 0 .052-.034.052-.079 0-.134-.143-.38-.292-.632-.109-.185-.159-.302-.204-.302-.051 0-.102.081-.114.178l-.021.127m-.6198.4205l.178-.095c.049-.026.076-.061.076-.101l-.012-.066c-.027-.089-.006-.188-.008-.225-.008-.188-.151-.186-.209-.186-.034 0-.016.022-.099.116l-.231.263c-.071.081-.133.265-.158.472l-.001.028c0 .056.018.078.064.078.028 0 .08-.023.116-.053l.284-.231m.6303-1.0933l.168.105.099-.022c.116 0 .144-.034.144-.162 0-.187-.117-.266-.327-.793-.093-.233-.112-.368-.25-.368-.154 0-.271.125-.391.421l-.137.336c-.096.237-.138.38-.138.467 0 .08.062.133.156.133.051 0 .103-.015.151-.043.081-.048.123-.073.126-.074l.121-.012.057.002.221.01m19.6332.638l-.087.182-.015.084c0 .09.039.131.173.179.134.048.278.127.346.189l.116.105.011.004c.03 0 .052-.034.052-.079 0-.134-.123-.345-.272-.598-.109-.185-.178-.336-.223-.336-.052 0-.103.08-.115.178l.014.092m-.6543.4553l.178-.095c.051-.027.08-.072.08-.123l-.006-.044-.052-.19-.032-.21c-.004-.025-.028-.043-.056-.043l-.007.001c-.044.013-.156.06-.229.144l-.158.266c-.024.027-.087.127-.139.294-.018.061-.033.12-.041.178l-.003.03c0 .053.02.076.065.076.028 0 .08-.023.116-.053l.284-.231m.6408-1.0933l.157.105.061.013c.116 0 .25-.116.25-.236 0-.104-.139-.165-.195-.312l-.116-.474c-.085-.224-.195-.336-.33-.336-.159 0-.279.127-.395.421-.053.136-.099.248-.136.336-.087.206-.135.359-.135.438 0 .101.059.162.155.162.05 0 .101-.015.148-.043.08-.047.122-.072.126-.074l.123-.012.056.002.231.01M68.7113 562.796l-.053.157-.011.046c0 .016.02.029.044.029.024 0 .081-.029.125-.064.046-.037.075-.034.147-.053.287-.074.347-.127.347-.265l-.011-.176-.042-.158c-.018-.067-.035-.091-.067-.091-.023 0-.204.131-.227.165l-.105.147-.147.263m1.2714-.2618l-.137-.243c-.033-.038-.051-.058-.052-.058l-.01-.002c-.056 0-.113.128-.116.26l-.021.21c.016.086.068.124.199.147.106.019.178.04.211.063.1.072.156.11.168.116l.017.003c.029 0 .049-.02.049-.051l-.003-.015-.074-.179-.231-.251m-.2732-.716l.168.084c.029.014.057.022.08.022.082 0 .142-.06.142-.171 0-.12-.094-.281-.222-.513-.139-.251-.243-.421-.351-.421-.151 0-.365.24-.574.642-.048.094-.079.207-.079.292 0 .133.058.203.169.203.046 0 .088-.011.121-.033l.094-.063c.082-.055.176-.085.268-.085.066 0 .129.015.184.043m18.2533 1.2718l.147-.095c.084-.054.154-.092.21-.115.163-.067.221-.091.221-.153 0-.023-.007-.079-.021-.12-.016-.047-.026-.097-.031-.148-.015-.143-.102-.178-.159-.178-.07 0-.145.108-.262.315-.052.094-.127.28-.168.42l-.006.04c0 .026.016.041.045.041l.024-.007m1.4186-.367l-.241-.243c-.086-.113-.086-.212-.106-.231-.015-.016-.041-.027-.073-.031l-.016-.002c-.061 0-.107.044-.11.107l-.011.178-.01.179v.011c0 .069.038.104.092.117l.223.061.231.116c.068.033.088.042.099.042.027 0 .05-.028.05-.061 0-.015-.008-.037-.023-.066l-.105-.177m-1.0612-.7147l.158-.117c.038-.023.087-.035.14-.035.064 0 .159.025.248.067l.137.063c.031.014.059.022.082.022.084 0 .15-.089.15-.201 0-.154-.112-.315-.274-.546l-.115-.242c-.092-.131-.153-.179-.228-.179-.125 0-.185.071-.372.442-.134.266-.189.428-.189.558 0 .111.057.188.141.188.034 0 .076.008.122-.02"/>
      <path fill="#fddd04" d="M69.3734 581.0388h-.137c-.02 0-.04-.012-.052-.032l-.021-.053.052-.252.042-.22c.023-.121.068-.169.158-.169.104 0 .166.071.178.201l.022.23c.013.155.02.235.02.241 0 .022-.011.046-.031.064-.015.015-.034.023-.053.023l-.01-.002-.168-.031m19.609 0h-.126c-.019 0-.039-.012-.053-.032-.02-.029-.031-.048-.031-.053l.052-.252.042-.22c.024-.121.044-.169.134-.169.103 0 .191.071.203.201l.021.23c.014.155.021.235.021.241 0 .022-.012.046-.032.064-.015.015-.034.023-.053.023l-.01-.002-.168-.031m-19.5146-19.4725l-.116.021-.017.001c-.067 0-.1-.039-.1-.114 0-.106.083-.302.191-.455.02-.027.05-.044.08-.044.068 0 .116.128.151.338l.032.158.002.03c0 .065-.019.088-.072.088l-.025-.002-.126-.021m18.9892-.137l.011-.2c.004-.091.08-.18.153-.18.096 0 .165.146.204.369.017.102.023.117.023.146 0 .077-.026.098-.125.098l-.056-.002h-.074l-.046.002c-.066 0-.091-.052-.091-.185l.001-.048"/>
      <path fill="#231f20" d="M76.624 571.6124h1.113c.125.265.297.381.562.381.264 0 .432-.11.583-.381h.911c.111.243.329.382.597.382.248 0 .487-.161.569-.382h.847c.128.247.325.382.556.382.236 0 .427-.107.567-.318l.043-.064h1.176v-5.447H83.12v-2.088h-1.208v2.088H78.86v-2.088h-1.208v2.109h-1.028v5.426"/>
      <path fill="#ef2f51" d="M77.063 566.585h6.683v4.58h-6.683v-4.58z"/>
      <path fill="#fddd04" d="M77.758 570.118c-.175 0-.318-.143-.318-.318 0-.175.143-.318.318-.318.176 0 .318.143.318.318 0 .175-.142.318-.318.318"/>
      <path fill="none" stroke="#231f20" stroke-width=".086" d="M77.758 570.118c-.175 0-.318-.143-.318-.318 0-.175.143-.318.318-.318.176 0 .318.143.318.318 0 .175-.142.318-.318.318z"/>
      <path fill="#fddd04" d="M83.004 570.118c-.176 0-.318-.143-.318-.318 0-.175.142-.318.318-.318.175 0 .318.143.318.318 0 .175-.143.318-.318.318"/>
      <path fill="none" stroke="#231f20" stroke-width=".086" d="M83.004 570.118c-.176 0-.318-.143-.318-.318 0-.175.142-.318.318-.318.175 0 .318.143.318.318 0 .175-.143.318-.318.318z"/>
      <path fill="#fddd04" d="M77.758 567.6277c-.175 0-.318-.143-.318-.318 0-.176.147-.318.329-.318.17 0 .307.142.307.318 0 .175-.142.318-.318.318"/>
      <path fill="none" stroke="#231f20" stroke-width=".086" d="M77.758 567.6277c-.175 0-.318-.143-.318-.318 0-.176.147-.318.329-.318.17 0 .307.142.307.318 0 .175-.142.318-.318.318z"/>
      <path fill="#fddd04" d="M83.004 567.6277c-.176 0-.318-.143-.318-.318 0-.176.142-.318.318-.318.175 0 .318.142.318.318 0 .175-.143.318-.318.318"/>
      <path fill="none" stroke="#231f20" stroke-width=".086" d="M83.004 567.6277c-.176 0-.318-.143-.318-.318 0-.176.142-.318.318-.318.175 0 .318.142.318.318 0 .175-.143.318-.318.318z"/>
      <path fill="#fddd04" d="M78.7544 568.5917c.431-.539.975-.805 1.646-.805.623 0 1.051.222 1.554.805-.502.516-.97.731-1.584.731-.646 0-1.229-.264-1.616-.731"/>
      <path fill="#231f20" d="M79.0723 568.5917c.444.345.819.488 1.282.488.468 0 .817-.137 1.272-.498-.396-.393-.745-.541-1.279-.541-.475 0-.907.187-1.275.551"/>
      <path fill="#fddd04" d="M79.613 568.6978c.266-.166.476-.233.724-.233.292 0 .535.073.77.233-.248.119-.506.181-.759.181-.264 0-.513-.061-.735-.181"/>
      <path fill="#231f20" d="M76.97 570.698h6.87v.234h-6.87v-.234z"/>
      <path fill="none" stroke="#231f20" stroke-width=".029" d="M76.97 570.698h6.87v.234h-6.87v-.234z"/>
      <path fill="#fddd04" d="M78.0232 571.2307v-.657c0-.156.123-.275.283-.275.185 0 .289.099.289.275v.647c0 .249-.101.403-.264.403-.033 0-.085-.013-.128-.033-.035-.016-.06-.03-.074-.042-.025-.021-.047-.05-.064-.085-.027-.057-.042-.097-.042-.116v-.117m2.066-.5403v-.117c0-.156.123-.275.283-.275.185 0 .29.099.29.275v.647c0 .247-.102.405-.263.405-.189 0-.31-.154-.31-.395v-.54m2.0033.5403v-.657c0-.156.123-.275.283-.275.185 0 .289.099.289.275v.647c0 .249-.101.403-.264.403-.033 0-.085-.013-.128-.033-.035-.016-.06-.03-.074-.042-.025-.021-.047-.05-.064-.085-.027-.057-.042-.097-.042-.116v-.117m-4.2175-6.3477h.625v.805h-.625v-.805zm0-.435h.625v.254h-.625v-.254zm4.26.435h.626v.805h-.626v-.805zm0-.435h.626v.254h-.626v-.254z"/>
      <path fill="#231f20" d="M116.4682 585.2274v-.48h-.315c-.469 0-1.253 0-1.253-1.463v-6.006c0-3.673-1.599-5.458-4.89-5.458-3.712 0-5.442 1.481-5.442 4.66v6.804c0 1.463-.793 1.463-1.493 1.463h-.148v.48h5.554v-.48h-.149c-.689 0-1.548 0-1.548-1.463v-6.5c0-2.801 1.17-4.163 3.577-4.163 2.341 0 3.578 1.466 3.578 4.239v6.424c0 1.463-.81 1.463-1.401 1.463h-.296v.48h4.226m6.0005-12.6414v-.48h-4.686v.48h.186c1.535 0 1.733 1.172 1.733 2.49v7.885c0 1.259-.727 1.786-1.752 1.786h-.167v.48h3.686l7.975-9.775v7.433c0 1.681-1.173 1.862-1.677 1.862h-.334v.48h4.735v-.48h-.204c-.83 0-1.715-.192-1.715-2.49v-10.216l-.696-.004-9.047 10.946.002-7.899c0-1.318.19-2.498 1.778-2.498h.183m25.1346 2.302l2.884 8.065c.516 1.374.185 1.794-1.008 1.794h-.242v.481h3.735v-.481h-.082c-.406 0-.883-.121-1.237-1.023l-4.374-11.668h-.832l-4.747 11.561c-.377.961-.822 1.13-1.618 1.13h-.111v.481h5.425v-.481h-.352c-.929 0-1.107-.58-.844-1.288l3.403-8.571m21.896 9.7217l-.002-5.809h1.124c2.043 0 2.944.909 2.944 3.041 0 1.732-1.115 2.851-2.796 2.851-.393 0-.93-.031-1.27-.083zm2.016.618c2.905 0 4.347-1.07 4.347-3.272 0-1.866-1.457-2.811-2.605-3.276l-.084-.034 3.218-4.9c.514-.795.934-1.101 1.822-1.149v-.491h-3.361l-3.902 6.16h-1.453v-4.083c0-1.482.659-1.597 1.588-1.597h.26v-.48h-5.705v.48h.259c.639 0 1.383.289 1.383 1.102v9.539c0 1.521-.899 1.521-1.383 1.521h-.259v.48h5.875m13.6335-10.632c0 1.599-1.371 2.228-2.65 2.894-1.497.78-3.222 1.586-3.222 4.008 0 2.345 1.785 3.86 4.336 3.86 1.042 0 2.225-.209 2.743-.314l.179-2.552-.492-.071c-.228 1.343-.925 2.374-2.435 2.374-1.42 0-2.47-.872-2.47-2.442 0-1.48 1.365-2.086 2.638-2.727 1.559-.785 3.347-1.597 3.347-4.042 0-2.706-2.412-3.918-4.643-3.918-.885 0-2.118.18-3.107.741l-.314 2.841.477.084c.364-1.886 1.56-2.979 3.139-2.979 1.511 0 2.474.922 2.474 2.243m9.359 10.6317v-.48h-.184c-.748 0-1.438-.14-1.438-1.159v-9.843c0-1.019.69-1.159 1.438-1.159h.184v-.481h-5.479v.481h.185c.746 0 1.438.14 1.438 1.159v9.843c0 1.019-.692 1.159-1.438 1.159h-.185v.48h5.479m-55.2972 0v-.48h-.186c-.746 0-1.438-.14-1.438-1.159v-9.843c0-1.019.692-1.159 1.438-1.159h.186v-.481h-5.48v.481h.185c.747 0 1.438.14 1.438 1.159v9.843c0 1.019-.691 1.159-1.438 1.159h-.185v.48h5.48m109.2197-18.9488l.045-3.483s-.423-.106-.557-.143c-.124 1.522-.469 2.765-2.904 2.765h-3.272v-6.437h2.808c1.379 0 1.753.77 1.909 2.1h.559v-5.383l-.559-.008c-.085 1.287-.388 2.287-1.897 2.287h-2.82v-5.653c0-1.644 1.415-1.644 2.914-1.644 2.689 0 3.936.17 4.688 2.891.109-.028.551-.123.551-.123l-.753-3.628h-12.217v.602h.233c.937 0 1.803.175 1.803 1.454v12.347c0 1.278-.866 1.454-1.803 1.454h-.233v.602h11.505m-69.107-.7744l-.001-7.287h1.406c2.562 0 3.691 1.142 3.691 3.817 0 2.17-1.398 3.574-3.505 3.574-.493 0-1.124-.029-1.591-.104zm2.527.774c3.644 0 5.452-1.342 5.452-4.101 0-2.342-1.827-3.528-3.267-4.111l-.107-.043 4.038-6.147c.646-.996 1.173-1.382 2.285-1.442v-.615h-4.214l-4.898 7.729h-1.817v-5.125c0-1.858.824-2.002 1.988-2.002h.326v-.602h-7.154v.602h.325c.8 0 1.735.362 1.735 1.382v11.966c0 1.907-1.129 1.907-1.735 1.907h-.325v.602h7.368m16.279.0038v-.603h-.233c-.938 0-1.805-.176-1.805-1.453v-12.348c0-1.278.867-1.454 1.805-1.454h.233v-.602h-6.876v.602h.232c.938 0 1.804.176 1.804 1.454v12.348c0 1.277-.866 1.453-1.804 1.453h-.232v.603h6.876m-.7698 18.9454h8.681c.435 0 .997.11 1.083.682h.423l-.333-3.422h-.466c-.029.79-.144 1.939-1.412 1.939h-2.649v-10.13c0-1.579.759-1.71 1.605-1.71h.277v-.481h-5.979v.481h.278c.995 0 1.604.081 1.604 1.672v10.168h-2.679c-1.364 0-1.494-.598-1.758-1.924h-.471l.301 3.38h.384c.176-.548.65-.656 1.111-.655m23.61 0v-.488c-.756-.041-1.211-.557-1.552-1.039l-3.332-5.134v-4.194c0-1.666.606-1.786 1.604-1.786h.278v-.481h-5.98v.481h.278c1.04 0 1.605.26 1.605 1.634v4.034l-3.616 5.169c-.553.797-.968 1.324-1.845 1.324h-.111v.48h5.421v-.48h-.167c-1.04 0-1.116-.553-.672-1.182l2.803-4.344 2.478 3.923c.568.856.732 1.603-.673 1.603h-.215l.001.48h3.695m6.4162-5.9902c0-3.242 1.431-6.73 4.574-6.73 2.877 0 4.278 1.996 4.278 6.102 0 3.014-1.61 6.217-4.592 6.217-3.953 0-4.26-4.278-4.26-5.589zm-2.436-.666c0 3.892 2.957 6.941 6.733 6.941 4.117 0 6.991-2.666 6.991-6.484 0-4.176-2.9-7.208-6.899-7.208-3.955 0-6.825 2.84-6.825 6.751m15.2203-6.4632v.478h.187c.747 0 1.437.14 1.437 1.159v9.843c0 1.019-.69 1.159-1.437 1.159h-.187v.479h9.168l.035-2.776c-.075-.021-.336-.084-.441-.113-.103 1.128-.36 2.204-1.928 2.204h-2.995v-5.132h2.627c1.085 0 1.242.857 1.252 1.54h.433v-4.204h-.432c-.01.822-.201 1.864-1.548 1.864h-2.332v-4.864c0-1.159.98-1.159 1.845-1.159h.166v-.478h-5.85m-136.203-14.0453c0 2.447.992 4.85 2.702 6.382 1.586 1.421 3.666 2.219 6.017 2.219 2.105 0 3.859-.381 5.575-1.182l.174-3.81-.54-.07c-.621 2.21-1.654 4.232-5.141 4.232-3.582 0-5.808-2.837-5.808-7.403 0-4.066 1.8-7.91 6.159-7.91 2.449 0 4.196.918 5.515 2.613l.43-.806c-1.485-1.921-3.779-2.944-6.389-2.944-5.308 0-8.694 3.133-8.694 8.679m35.492 5.034l-.546-10.166c-.099-2.252.599-2.449 2.111-2.505h.141v-.599h-5.549v.599h.212c1.87.074 1.985 1.114 2.07 2.633l.646 10.406c.083 1.42-.694 2.225-2.003 2.225h-.189v.6h4.658c.056-.132 5.59-12.475 5.59-12.475s5.233 12.345 5.289 12.476h4.568l-.001-.606h-.088c-1.852 0-2.179-.575-2.04-2.901l.637-10.918c.097-1.277.767-1.393 2.027-1.44v-.594h-6.83v.595c.019.001.045.002.045.002 1.113.067 1.916.114 1.916 1.231l-.023 1.18c0 .004-.502 10.525-.502 10.525s-5.635-13.527-5.691-13.658h-.497c-.056.134-5.951 13.39-5.951 13.39m66.094 2.4007l-.001-12.924c0-1.746.737-2.027 2.504-2.027 4.157 0 6.051 3.581 6.051 7.09 0 5.455-2.252 7.938-6.881 7.938-.408 0-1.279-.036-1.673-.077zm-4.833-15.675v.603h.233c.937 0 1.804.176 1.804 1.454v12.346c0 1.278-.867 1.454-1.804 1.454h-.233v.603l7.359.006c2.735 0 5.025-.688 6.626-2.178 1.577-1.467 2.411-3.546 2.411-6.015 0-2.307-.919-4.54-2.519-6.128-1.61-1.596-3.866-2.141-6.147-2.141l-7.73-.004m30.4044.847v4.035c0 .882-.643 1.35-1.858 1.35h-.193v.586h6.327v-.586h-.191c-.885 0-1.353-.468-1.353-1.35l-.003-4.492c-1.511-.486-3.536-.869-5.786-.869-5.433 0-8.945 3.521-8.945 8.97 0 5.796 4.632 8.438 8.99 8.438 1.951 0 3.957-.388 5.229-.814l.262-3.929-.552-.034c-.683 2.829-1.943 3.938-4.778 3.938-3.824 0-6.142-2.819-6.142-7.356 0-4.169 1.957-8.3 6.327-8.3 1.007-.022 2.049.132 2.666.413m-63.5847 8.1143c2.072-.151 3.174-.608 4.101-1.557.717-.734 1.096-1.664 1.096-2.747 0-2.583-2.368-4.652-5.447-4.652h-8.064v.596h.326c.799 0 1.734.382 1.734 1.403v11.942c0 1.906-1.128 1.906-1.734 1.906h-.326v.602l7.308.004c3.431 0 5.319-1.244 5.319-3.6 0-2.607-2.293-3.571-4.313-3.897m-3.373 6.891v-6.609h1.237c2.268 0 3.517 1.099 3.517 3.203 0 2.324-1.098 3.406-3.264 3.406h-1.49zm0-7.329v-5.791c0-1.609.512-2.069 2.181-2.069 2.005 0 3.519 1.65 3.519 3.897 0 2.529-1.541 3.963-4.119 3.963h-1.581m-38.1024 4.5797l2.3-6.412h-4.606l2.306 6.412zm.285 3.358s-5.223-14.206-5.224-14.207c-.387-1.01-1.071-1.633-2.085-1.633h-.055l-.002-.618h5.008l-.001.618h-.218c-1.205 0-2.026.386-1.501 1.942l1.196 3.319h5.186l1.297-3.618c.372-1.141-.113-1.66-1.353-1.66h-.144v-.607h6.374l.001.607h-.05c-.85 0-1.432.446-1.828 1.575l-5.36 14.279-1.241.003m36.679 18.945l.035-2.775s-.337-.085-.443-.114c-.1 1.213-.374 2.203-2.315 2.203h-2.606v-5.129h2.237c1.098 0 1.397.614 1.52 1.673h.447v-4.289l-.445-.007c-.069 1.026-.309 1.823-1.513 1.823h-2.246v-4.504c0-1.31 1.127-1.31 2.322-1.31 2.142 0 3.135.134 3.735 2.303.087-.022.438-.097.438-.097l-.599-2.892h-9.737v.48h.185c.747 0 1.438.14 1.438 1.158v9.839c0 1.018-.691 1.158-1.438 1.158h-.185v.48h9.17"/>
    </g>
  </g>
</svg>
